<?xml version="1.0" encoding="UTF-8"?>
<svg version="1.1" xmlns="http://www.w3.org/2000/svg" width="1024" height="1024">
<path d="M0 0 C337.92 0 675.84 0 1024 0 C1024 337.92 1024 675.84 1024 1024 C686.08 1024 348.16 1024 0 1024 C0 686.08 0 348.16 0 0 Z " fill="#0B3A4F" transform="translate(0,0)"/>
<path d="M0 0 C1.48831242 0.00667405 2.97660807 0.01863442 4.46484375 0.03515625 C5.22345703 0.03966797 5.98207031 0.04417969 6.76367188 0.04882812 C8.64326246 0.06064945 10.52281274 0.07858547 12.40234375 0.09765625 C12.40234375 0.75765625 12.40234375 1.41765625 12.40234375 2.09765625 C14.28953125 2.15953125 14.28953125 2.15953125 16.21484375 2.22265625 C26.69431854 3.43814392 35.45482266 10.55289211 42.40234375 18.09765625 C50.76426777 29.15868233 53.00443982 41.49861419 51.40234375 55.09765625 C49.14672589 65.31059269 44.28117628 74.8125276 36.4296875 81.87109375 C32.9018075 84.00549514 29.38724352 83.73858419 25.40234375 83.09765625 C22.27734375 81.28515625 22.27734375 81.28515625 19.40234375 79.09765625 C14.30463927 76.51122879 10.14980975 75.62356201 4.40234375 75.72265625 C3.39300781 75.70525391 3.39300781 75.70525391 2.36328125 75.6875 C-4.01572636 75.72444406 -8.43759059 77.48909671 -13.53515625 81.28515625 C-17.74840774 83.77871326 -19.74633533 83.7907021 -24.59765625 83.09765625 C-27.16015625 81.16015625 -27.16015625 81.16015625 -29.59765625 78.09765625 C-30.4484375 77.11539063 -30.4484375 77.11539063 -31.31640625 76.11328125 C-37.25838832 69.01311624 -40.95416281 61.4283112 -41.59765625 52.09765625 C-41.66082031 51.22625 -41.72398437 50.35484375 -41.7890625 49.45703125 C-42.23806662 38.39125236 -39.36317633 27.94196741 -32.59765625 19.09765625 C-31.84355469 18.09992188 -31.84355469 18.09992188 -31.07421875 17.08203125 C-24.46608321 8.95371429 -17.00401309 3.87774655 -6.75 1.60546875 C-3.34914203 0.80308847 -4.08201668 0.11080393 0 0 Z " fill="#61D54F" transform="translate(734.59765625,475.90234375)"/>
<path d="M0 0 C6.93 0 13.86 0 21 0 C24.30586745 7.64481848 27.28210059 15.36034752 30.125 23.1875 C30.46144531 24.11320801 30.79789063 25.03891602 31.14453125 25.99267578 C37 42.21382859 37 42.21382859 37 45 C37.66 45 38.32 45 39 45 C39.226875 43.741875 39.45375 42.48375 39.6875 41.1875 C40.49308415 37.52265941 41.65733287 34.42488354 43.3125 31.0625 C46.04193157 25.37014566 47.65181991 19.55005581 49.2121582 13.45727539 C49.40253662 12.72371826 49.59291504 11.99016113 49.7890625 11.234375 C49.95100098 10.58694336 50.11293945 9.93951172 50.27978516 9.27246094 C51.28594196 6.09778043 52.68812762 3.06103556 54 0 C60.27 0 66.54 0 73 0 C76.0843058 6.67807282 78.63604383 13.41241036 81 20.375 C81.66586891 22.32058571 82.33253377 24.2658992 83 26.2109375 C83.48726562 27.63164551 83.48726562 27.63164551 83.984375 29.08105469 C85.6051782 33.73930544 87.29815433 38.37084401 89 43 C90.69207642 39.79507021 91.9669771 36.52871656 93.20703125 33.125 C93.62919922 31.97386719 94.05136719 30.82273437 94.48632812 29.63671875 C95.35900912 27.24359355 96.23141254 24.85036711 97.10351562 22.45703125 C99.88172639 14.88314955 102.8472752 7.42616686 106 0 C113.26 0 120.52 0 128 0 C126.73784908 4.41752822 125.6059435 7.98040378 123.78125 12.05859375 C122.8803631 14.2972977 122.2225415 16.5540932 121.5625 18.875 C119.90954257 24.54472962 117.71782451 29.86362354 114.87890625 35.046875 C110.27339195 43.56330145 107.60033057 52.81028123 104.67675781 62.00390625 C104 64 104 64 103 66 C102.34 66 101.68 66 101 66 C100.814375 67.5159375 100.814375 67.5159375 100.625 69.0625 C100 73 100 73 98 80 C92.06 80 86.12 80 80 80 C79.34 78.02 78.68 76.04 78 74 C77.46719415 72.51029572 76.92725834 71.02311469 76.37890625 69.5390625 C76.08306641 68.73726562 75.78722656 67.93546875 75.48242188 67.109375 C75.17884766 66.28953125 74.87527344 65.4696875 74.5625 64.625 C74.26279297 63.81289063 73.96308594 63.00078125 73.65429688 62.1640625 C71.92953869 57.48874828 71.92953869 57.48874828 70.16821289 52.82714844 C68.67513243 48.92295421 67.37535818 45.04898354 66.3125 41 C66.06113281 40.05125 65.80976562 39.1025 65.55078125 38.125 C65.36902344 37.42375 65.18726563 36.7225 65 36 C64.34 36 63.68 36 63 36 C62.82041748 36.53874756 62.64083496 37.07749512 62.45581055 37.63256836 C59.63720703 46.08837891 56.81860352 54.54418945 54 63 C53.34 63 52.68 63 52 63 C51.81824219 63.8353125 51.81824219 63.8353125 51.6328125 64.6875 C51.46523438 65.450625 51.29765625 66.21375 51.125 67 C50.96257813 67.7425 50.80015625 68.485 50.6328125 69.25 C49.8054906 72.84527542 48.89477131 76.42091476 48 80 C42.39 80 36.78 80 31 80 C30.5875 78.845 30.175 77.69 29.75 76.5 C28.67003846 73.60996207 27.4776249 70.86575573 26.0625 68.125 C24.09314026 64.29903013 22.49899617 60.37852728 20.9375 56.37109375 C20.15539922 54.39303052 19.30460082 52.44230583 18.4375 50.5 C17.29812339 47.72586565 16.43347044 45.1225542 15.625 42.25 C14.26618967 37.54040607 12.34194823 33.27696491 10.25390625 28.8515625 C8.55538814 24.98888891 7.32487541 21.0212272 6.046875 17.00390625 C4.63453863 12.95134406 2.83223347 9.13178011 0.953125 5.27734375 C0 3 0 3 0 0 Z " fill="#F6F8F9" transform="translate(781,478)"/>
<path d="M0 0 C5.69612937 3.59856822 12.44299178 8.00731175 14.5625 14.6484375 C14.583125 15.3290625 14.60375 16.0096875 14.625 16.7109375 C15.285 16.7109375 15.945 16.7109375 16.625 16.7109375 C19.62110124 23.35446634 20.76543748 28.58182399 20.75 35.9609375 C20.75386719 37.82492187 20.75386719 37.82492187 20.7578125 39.7265625 C20.625 42.7109375 20.625 42.7109375 19.625 43.7109375 C17.93698015 43.80446913 16.24504793 43.82838541 14.55444336 43.82446289 C13.47339828 43.82438736 12.39235321 43.82431183 11.27854919 43.82423401 C9.514515 43.81649208 9.514515 43.81649208 7.71484375 43.80859375 C6.51767227 43.8071788 5.32050079 43.80576385 4.08705139 43.80430603 C0.24550934 43.79868729 -3.59597543 43.78613161 -7.4375 43.7734375 C-10.03450437 43.76842491 -12.63150965 43.76386159 -15.22851562 43.75976562 C-21.61069679 43.74871177 -27.9928443 43.73195542 -34.375 43.7109375 C-33.90802763 44.99873898 -33.43704009 46.28508499 -32.96435547 47.57080078 C-32.70250458 48.2872879 -32.44065369 49.00377502 -32.17086792 49.74197388 C-31.24648509 52.02888119 -30.13366437 53.7403383 -28.5 55.5859375 C-27.79230469 56.41738281 -27.79230469 56.41738281 -27.0703125 57.265625 C-22.44210766 61.21132959 -17.25848368 61.13134239 -11.453125 61.03125 C-5.72766164 60.43545305 -1.13404209 58.46997959 2.9375 54.3984375 C3.494375 53.8415625 4.05125 53.2846875 4.625 52.7109375 C7.66013492 52.86171094 8.73326461 53.8109568 10.984375 55.890625 C11.77328125 56.78007813 12.5621875 57.66953125 13.375 58.5859375 C14.17421875 59.47023438 14.9734375 60.35453125 15.796875 61.265625 C17.625 63.7109375 17.625 63.7109375 17.625 66.7109375 C15.67645184 68.37337735 13.79983055 69.78705284 11.6875 71.2109375 C11.14287109 71.60152344 10.59824219 71.99210938 10.03710938 72.39453125 C2.007304 77.90864037 -5.82552086 79.22110538 -15.4375 79.1484375 C-16.84999023 79.1784082 -16.84999023 79.1784082 -18.29101562 79.20898438 C-24.65829753 79.20455342 -28.96500289 78.02751838 -34.375 74.7109375 C-35.1175 74.32550781 -35.86 73.94007813 -36.625 73.54296875 C-42.19363483 70.29874176 -46.6598784 65.98720062 -50.375 60.7109375 C-50.375 59.7209375 -50.375 58.7309375 -50.375 57.7109375 C-51.035 57.7109375 -51.695 57.7109375 -52.375 57.7109375 C-56.60359734 46.51018858 -57.72984076 31.31457581 -53.4765625 19.90625 C-49.75481178 12.48914395 -44.52416471 5.16258233 -37.375 0.7109375 C-36.055 0.7109375 -34.735 0.7109375 -33.375 0.7109375 C-33.375 0.0509375 -33.375 -0.6090625 -33.375 -1.2890625 C-22.33569511 -5.97240397 -10.61281156 -5.76024312 0 0 Z " fill="#F7F9F9" transform="translate(578.375,480.2890625)"/>
<path d="M0 0 C1.02287109 -0.01836914 1.02287109 -0.01836914 2.06640625 -0.03710938 C11.21900229 -0.06325965 19.50655417 2.99192803 26.30078125 9.1640625 C37.23837664 20.82259168 38.125 29.94490515 38.125 46.1875 C19.975 46.1875 1.825 46.1875 -16.875 46.1875 C-14.76278037 53.85252479 -14.76278037 53.85252479 -10.5 59.125 C-9.65308594 59.94291016 -9.65308594 59.94291016 -8.7890625 60.77734375 C-3.26755602 64.84522913 2.5264454 64.79601224 9.125 64.1875 C14.55362596 62.46843511 18.62873935 59.58263559 23.125 56.1875 C26.73061914 57.7174072 29.1109199 59.87446932 31.875 62.625 C32.67421875 63.40746094 33.4734375 64.18992187 34.296875 64.99609375 C36.125 67.1875 36.125 67.1875 36.125 70.1875 C34.40234375 71.65234375 34.40234375 71.65234375 32.0625 73.125 C31.23878906 73.64449219 30.41507812 74.16398438 29.56640625 74.69921875 C28.35791016 75.43591797 28.35791016 75.43591797 27.125 76.1875 C26.49464844 76.58582031 25.86429688 76.98414063 25.21484375 77.39453125 C14.67109314 83.80724518 0.67807679 83.96266688 -11.1875 81.5 C-13.61671458 80.58904453 -15.68008423 79.56470205 -17.875 78.1875 C-18.57367188 77.775 -19.27234375 77.3625 -19.9921875 76.9375 C-25.73477257 73.12355671 -29.25792905 67.96565637 -32.875 62.1875 C-33.41125 61.34316406 -33.9475 60.49882813 -34.5 59.62890625 C-40.2650973 49.39258293 -38.56581181 35.97359923 -35.80859375 25.08984375 C-34.60987857 21.36329404 -33.05876254 18.42549273 -30.875 15.1875 C-30.215 15.1875 -29.555 15.1875 -28.875 15.1875 C-28.62234375 14.60097656 -28.3696875 14.01445312 -28.109375 13.41015625 C-24.96916303 7.75578724 -18.76901397 3.54510559 -12.875 1.1875 C-8.59925204 0.09370401 -4.38806285 0.00410099 0 0 Z " fill="#F7F9F9" transform="translate(212.875,476.8125)"/>
<path d="M0 0 C1.27677612 0.00858032 1.27677612 0.00858032 2.5793457 0.01733398 C12.90302598 0.30650998 22.01616807 3.26283296 29.4765625 10.64453125 C30.02054688 11.25683594 30.56453125 11.86914062 31.125 12.5 C31.87910156 13.34111328 31.87910156 13.34111328 32.6484375 14.19921875 C41.21768515 25.61662674 38.3627255 45.52210179 38.25 58.9375 C38.23994395 61.03710508 38.23082277 63.13671485 38.22265625 65.23632812 C38.20258483 70.32443296 38.16340098 75.4118704 38.125 80.5 C31.195 80.5 24.265 80.5 17.125 80.5 C17.11041748 79.01153564 17.09583496 77.52307129 17.08081055 75.98950195 C17.02280909 70.46354225 16.94557553 64.93798923 16.86254883 59.41235352 C16.82930833 57.02147017 16.80127371 54.63050852 16.77856445 52.23950195 C16.74500317 48.80125581 16.69268476 45.36372671 16.63671875 41.92578125 C16.63032883 40.85789871 16.6239389 39.79001617 16.61735535 38.68977356 C16.55042318 31.57952082 16.55042318 31.57952082 13.125 25.5 C9.48449872 22.13253632 6.65095242 21.21137546 1.8125 21.0625 C-4.63502143 21.316892 -9.76038944 22.91401642 -15.46020508 25.81640625 C-19.35560944 30.14542099 -18.60146573 34.85728515 -18.58203125 40.484375 C-18.59715256 41.65510559 -18.61227386 42.82583618 -18.62785339 44.03204346 C-18.67084329 47.77155651 -18.67957988 51.5102641 -18.6875 55.25 C-18.71063532 57.78517783 -18.73599862 60.32033639 -18.76367188 62.85546875 C-18.82663669 69.07038407 -18.85888369 75.28479372 -18.875 81.5 C-25.805 81.5 -32.735 81.5 -39.875 81.5 C-39.875 55.1 -39.875 28.7 -39.875 1.5 C-32.945 1.5 -26.015 1.5 -18.875 1.5 C-18.875 3.15 -18.875 4.8 -18.875 6.5 C-17.781875 6.066875 -16.68875 5.63375 -15.5625 5.1875 C-14.64017578 4.82205078 -14.64017578 4.82205078 -13.69921875 4.44921875 C-11.80001489 3.59807322 -11.80001489 3.59807322 -10.51049805 1.9699707 C-7.54813332 -0.69257565 -3.8132409 -0.02924435 0 0 Z " fill="#F7F9F9" transform="translate(646.875,476.5)"/>
<path d="M0 0 C0 0.66 0 1.32 0 2 C0.58265625 2.10183594 1.1653125 2.20367187 1.765625 2.30859375 C4.37219275 3.11517153 5.73535414 4.24157009 7.75 6.0625 C8.36359375 6.61035156 8.9771875 7.15820312 9.609375 7.72265625 C10.29773438 8.35494141 10.29773438 8.35494141 11 9 C10.51594564 13.31180732 9.37995134 15.0589554 6.0625 17.8125 C5.35222656 18.41707031 4.64195312 19.02164062 3.91015625 19.64453125 C2 21 2 21 0 21 C-0.495 22.485 -0.495 22.485 -1 24 C-4.34249629 23.40312566 -6.46436342 22.26396123 -9 20 C-9 19.34 -9 18.68 -9 18 C-16.40074639 16.6179329 -24.24741737 15.79381273 -31.5 18.125 C-36.46243887 21.84682915 -39.73140556 25.88768134 -41 32 C-41.87484417 40.76190086 -40.34592949 46.29091406 -35.3125 53.375 C-29.84473214 57.21721525 -21.514809 58.10818916 -15 57 C-10.81112567 55.33109928 -7.10696259 53.53102289 -4.4296875 49.828125 C-3.95789063 49.22484375 -3.48609375 48.6215625 -3 48 C0 48 0 48 2.125 50.0625 C2.75341797 50.73539063 2.75341797 50.73539063 3.39453125 51.421875 C6.64039825 54.61245959 10.37427582 57.25898412 14 60 C10.61076266 67.96736946 1.75447021 73.70293511 -6 77 C-16.80611798 80.06206268 -31.49781065 79.58953241 -41.48046875 74.5625 C-47.06070029 71.10189129 -52.3483553 67.56278585 -56 62 C-56 61.34 -56 60.68 -56 60 C-56.99 59.67 -57.98 59.34 -59 59 C-63.72712814 50.49116935 -64.31573652 41.51720076 -64 32 C-63.98324219 31.31808594 -63.96648437 30.63617188 -63.94921875 29.93359375 C-63.20625494 19.42596275 -56.52278832 10.88955698 -49 4 C-46.44069789 2.24732618 -43.87894331 1.12535545 -41 0 C-39.96552734 -0.55300781 -39.96552734 -0.55300781 -38.91015625 -1.1171875 C-26.77473093 -7.13303937 -12.12302498 -4.79780494 0 0 Z " fill="#F5F8F8" transform="translate(505,481)"/>
<path d="M0 0 C0.886875 0.763125 1.77375 1.52625 2.6875 2.3125 C1.27300246 6.42740195 -0.82185266 9.83121592 -3.19140625 13.4453125 C-4.46901676 15.41999909 -4.46901676 15.41999909 -5.3125 18.3125 C-8.65623475 17.75521087 -11.34562999 16.96076111 -14.3125 15.3125 C-14.3125 14.6525 -14.3125 13.9925 -14.3125 13.3125 C-16.39518593 13.23123913 -18.47878658 13.17319161 -20.5625 13.125 C-21.72265625 13.09019531 -22.8828125 13.05539062 -24.078125 13.01953125 C-27.55654363 13.3346054 -28.89789523 13.83914572 -31.3125 16.3125 C-31.89583333 18.8125 -31.89583333 18.8125 -31.3125 21.3125 C-28.79181417 24.80893519 -25.30799513 25.4337202 -21.3125 26.625 C-11.24721405 29.7894188 -2.04844349 33.72386468 4.28515625 42.53515625 C7.1033596 48.11661191 6.76043226 55.62110211 5.03125 61.5703125 C0.77631497 69.75005828 -7.88735654 74.50411885 -16.3125 77.3125 C-26.91747035 78.20228168 -37.85963518 78.6822762 -47.3125 73.3125 C-49.1859666 72.39270346 -51.06097358 71.47603783 -52.9375 70.5625 C-54.39791637 69.81656425 -55.85705619 69.06809211 -57.3125 68.3125 C-56.64722731 64.57810265 -54.99500727 61.82470116 -53 58.625 C-52.40574219 57.65175781 -51.81148438 56.67851563 -51.19921875 55.67578125 C-49.3125 53.3125 -49.3125 53.3125 -47.296875 52.33203125 C-44.70808957 52.30655108 -43.8426806 53.04246449 -41.875 54.6875 C-37.24164577 58.53608658 -32.61150607 58.45108402 -26.75 58.4375 C-25.63496094 58.44007813 -24.51992187 58.44265625 -23.37109375 58.4453125 C-20.82056272 58.33456147 -18.73659171 58.0592862 -16.3125 57.3125 C-15.83971017 52.47046393 -15.83971017 52.47046393 -17.8203125 48.2265625 C-21.09591799 45.71081533 -24.50238862 44.90870801 -28.4375 43.9375 C-38.14593469 41.27878421 -46.88937293 38.06702364 -52.31640625 29.01171875 C-54.65868411 22.66460501 -54.55012613 15.40656531 -52.046875 9.1484375 C-48.26492915 2.96444496 -42.07200507 -2.07587304 -35.3125 -4.6875 C-24.1643214 -7.36078773 -9.59339067 -6.79451411 0 0 Z " fill="#F6F8F9" transform="translate(165.3125,481.6875)"/>
<path d="M0 0 C7.26 0 14.52 0 22 0 C23.32 3.3 24.64 6.6 26 10 C26.89615729 11.6481606 27.82689551 13.27871837 28.8125 14.875 C32.2559502 20.94244642 34.35315406 27.38517083 36.46411133 34.00732422 C38.01605258 38.740768 39.51059198 42.29726572 43 46 C46.02578403 40.99430077 48.2779732 36.0610339 50.25 30.5625 C50.518125 29.83095703 50.78625 29.09941406 51.0625 28.34570312 C51.71395027 26.56584792 52.35778776 24.78320931 53 23 C53.66 23 54.32 23 55 23 C55.11601562 22.13503906 55.23203125 21.27007812 55.3515625 20.37890625 C56.00634023 16.96696206 57.01618249 14.12866233 58.375 10.9375 C59.00535156 9.43509766 59.00535156 9.43509766 59.6484375 7.90234375 C60.31746094 6.46568359 60.31746094 6.46568359 61 5 C61.47759766 3.58847656 61.47759766 3.58847656 61.96484375 2.1484375 C64.51754527 -0.54635298 65.47396534 -0.36030014 69.10546875 -0.48828125 C71.13338658 -0.4550367 73.16100447 -0.39539629 75.1875 -0.3125 C76.74114258 -0.27866211 76.74114258 -0.27866211 78.32617188 -0.24414062 C80.88556404 -0.18516846 83.44205951 -0.10292567 86 0 C85.13353727 3.70998131 83.77753189 7.00399918 82.25 10.5 C81.70908342 11.7445519 81.16872939 12.98934843 80.62890625 14.234375 C80.3570752 14.86021484 80.08524414 15.48605469 79.80517578 16.13085938 C78.15548164 19.96047076 76.57249449 23.81803923 74.98046875 27.671875 C74.36467835 29.13407054 73.70953698 30.58092605 73 32 C72.34 32 71.68 32 71 32 C70.731875 33.216875 70.46375 34.43375 70.1875 35.6875 C69.29752626 39.25992978 67.99509584 41.88765049 66 45 C64.98060364 47.32675779 63.98417217 49.65848918 63 52 C61.86170935 54.64911885 60.71333526 57.2938091 59.5625 59.9375 C59.25683105 60.6397168 58.95116211 61.34193359 58.63623047 62.06542969 C57.0536173 65.67684055 55.42859812 69.24190256 53.625 72.75 C51.83956185 76.02711631 51.83956185 76.02711631 51 80 C45.72 80 40.44 80 35 80 C30.04464286 70.35714286 30.04464286 70.35714286 28.5625 66.125 C27.32587678 62.63997092 25.74290993 59.41860346 24.0625 56.125 C21.74561041 51.57724394 19.71154916 47.01753574 17.875 42.2578125 C17.06583996 40.16989062 16.20586508 38.11552167 15.3125 36.0625 C14 33 14 33 13 30 C12.34 29.67 11.68 29.34 11 29 C10.10546875 27.1015625 10.10546875 27.1015625 9.1875 24.625 C7.35379397 19.83813443 5.30486609 15.19233868 3.1484375 10.54296875 C0 3.57142857 0 3.57142857 0 0 Z " fill="#F5F8F8" transform="translate(317,478)"/>
<path d="M0 0 C2.3925 0.04125 4.785 0.0825 7.25 0.125 C7.25 7.055 7.25 13.985 7.25 21.125 C4.0325 21.00125 4.0325 21.00125 0.75 20.875 C-5.69380377 20.84891173 -9.32061217 21.78383826 -14.75 25.125 C-15.41 25.125 -16.07 25.125 -16.75 25.125 C-16.75 25.785 -16.75 26.445 -16.75 27.125 C-17.41 27.455 -18.07 27.785 -18.75 28.125 C-19.08 45.615 -19.41 63.105 -19.75 81.125 C-27.01 81.125 -34.27 81.125 -41.75 81.125 C-41.75 54.725 -41.75 28.325 -41.75 1.125 C-34.82 1.125 -27.89 1.125 -20.75 1.125 C-20.75 3.105 -20.75 5.085 -20.75 7.125 C-20.14671875 6.78726562 -19.5434375 6.44953125 -18.921875 6.1015625 C-18.12265625 5.65554688 -17.3234375 5.20953125 -16.5 4.75 C-15.31664062 4.08871094 -15.31664062 4.08871094 -14.109375 3.4140625 C-13.33078125 2.98867188 -12.5521875 2.56328125 -11.75 2.125 C-11.151875 1.7434375 -10.55375 1.361875 -9.9375 0.96875 C-6.6714933 -0.29099544 -3.44306768 -0.08395914 0 0 Z " fill="#F3F5F6" transform="translate(301.75,476.875)"/>
<path d="M0 0 C7.26 0 14.52 0 22 0 C22 26.4 22 52.8 22 80 C14.74 80 7.48 80 0 80 C0 53.6 0 27.2 0 0 Z " fill="#F2F5F6" transform="translate(410,478)"/>
<path d="M0 0 C4.89797661 3.47374228 8.8165903 6.98180537 10 13 C10.76987268 20.43627016 11.27907985 27.1674795 7 33.625 C2.39186361 39.11087666 -1.29246323 42.47035189 -8.52734375 43.50390625 C-15.74253042 43.84268125 -21.37013104 43.50801929 -27.12890625 38.9140625 C-33.31654717 32.58432544 -36.45075629 26.29478508 -36.43359375 17.3359375 C-35.52214045 12.42558547 -32.59434231 8.20036373 -30 4 C-29.34 4 -28.68 4 -28 4 C-28 3.34 -28 2.68 -28 2 C-27.34 2 -26.68 2 -26 2 C-26 1.34 -26 0.68 -26 0 C-17.28546775 -3.94620328 -8.59586617 -4.88784547 0 0 Z " fill="#042E40" transform="translate(752,503)"/>
<path d="M0 0 C3.62006077 2.77984913 5.25410733 5.66739443 6.01953125 10.08984375 C6.00469352 14.34827292 5.68298947 17.90715735 3.58203125 21.65234375 C2.01953125 23.08984375 2.01953125 23.08984375 0.01953125 23.08984375 C0.01953125 23.74984375 0.01953125 24.40984375 0.01953125 25.08984375 C-3.92476694 27.06199285 -8.68163304 26.53852336 -12.98046875 26.08984375 C-16.891228 24.10015922 -18.55735973 22.72450729 -20.98046875 19.08984375 C-21.31640625 16.12890625 -21.31640625 16.12890625 -21.35546875 12.71484375 C-21.38382812 11.59335937 -21.4121875 10.471875 -21.44140625 9.31640625 C-20.88306546 5.40802074 -19.75924712 3.84912192 -16.98046875 1.08984375 C-12.2643611 -2.07668567 -5.13802019 -2.36125977 0 0 Z " fill="#F2F6F7" transform="translate(428.98046875,441.91015625)"/>
<path d="M0 0 C6.82282903 1.01078949 10.54533256 6.66611709 14.421875 11.83203125 C17.99506392 16.74074375 19.18510829 19.94651871 20 26 C20.66 26.33 21.32 26.66 22 27 C23.05390562 31.94877422 23.46684337 37.11052208 22 42 C22.66 42 23.32 42 24 42 C24.20086443 45.71599191 24.1519437 46.77208445 22 50 C21.67 51.155 21.34 52.31 21 53.5 C20 57 20 57 18 60 C17.34 60 16.68 60 16 60 C15.92523437 60.86882813 15.85046875 61.73765625 15.7734375 62.6328125 C14.33936927 68.87607925 9.95572768 73.14108654 5 77 C0.3190515 78.38576511 -3.64112539 77.94956519 -8.14453125 76.13671875 C-10 75.125 -10 75.125 -13 73 C-18.10756985 69.59495343 -23.9821493 69.85399729 -30 70 C-37.03686828 71.44930318 -42.85077185 74.8785431 -48.7109375 78.92578125 C-51.56556958 80.26541234 -53.03580778 79.89554217 -56 79 C-56 78.34 -56 77.68 -56 77 C-56.66 77 -57.32 77 -58 77 C-58 76.34 -58 75.68 -58 75 C-59.32 74.34 -60.64 73.68 -62 73 C-62 72.34 -62 71.68 -62 71 C-57.125 72.875 -57.125 72.875 -56 74 C-51.15986859 74.50070325 -48.31109346 74.61221378 -44.375 71.625 C-43.61316406 70.96371094 -43.61316406 70.96371094 -42.8359375 70.2890625 C-36.19681352 65.62754992 -26.77227512 65.80985291 -19 67 C-14.49175485 68.60495444 -9.45280158 70.54719842 -6 74 C-1.44454446 74.65884688 1.92625194 74.79906833 5.6875 72 C6.450625 71.01 7.21375 70.02 8 69 C8.48082031 68.46503906 8.96164062 67.93007813 9.45703125 67.37890625 C17.65864126 57.72384636 19.9417408 46.2044499 19.34765625 33.9140625 C18.28749496 21.97831409 13.07793802 12.3256225 4.0625 4.375 C3.29035156 3.74335938 2.51820313 3.11171875 1.72265625 2.4609375 C1.15417969 1.97882813 0.58570313 1.49671875 0 1 C0 0.67 0 0.34 0 0 Z " fill="#0B4734" transform="translate(766,484)"/>
<path d="M0 0 C3.15461632 2.50003343 5.44540631 5.34916159 7.125 8.98828125 C7.125 10.30828125 7.125 11.62828125 7.125 12.98828125 C-3.435 12.98828125 -13.995 12.98828125 -24.875 12.98828125 C-23.71848488 6.0491905 -22.06400216 4.22875613 -16.875 -0.01171875 C-12.05305636 -3.13946598 -5.01079523 -2.70374159 0 0 Z " fill="#1A3E50" transform="translate(221.875,495.01171875)"/>
<path d="M0 0 C0.96808594 -0.00257813 1.93617188 -0.00515625 2.93359375 -0.0078125 C8.13026991 0.25472389 10.12673052 2.4315478 13.5625 6.125 C16.32303567 9.26629921 16.5625 9.70589314 16.5625 14.125 C5.6725 14.125 -5.2175 14.125 -16.4375 14.125 C-15.3108913 7.36534783 -15.3108913 7.36534783 -11.5 4.3125 C-10.78972656 3.72855469 -10.07945312 3.14460938 -9.34765625 2.54296875 C-6.07076862 0.11043254 -4.04591845 -0.01074613 0 0 Z " fill="#1F4153" transform="translate(560.4375,493.875)"/>
<path d="M0 0 C3.342356 0.0587315 5.60891136 0.38682585 8.375 2.3125 C11.18916749 5.8482489 11.76876206 7.71567782 11.46484375 12.1484375 C10.45769598 15.58600775 8.60716126 17.27822476 5.7421875 19.33203125 C2.72385919 20.96339493 1.16454838 21.21301209 -2.1875 20.375 C-5.01454735 18.74401114 -7.22603759 16.99596862 -9.1875 14.375 C-9.625 10.5 -9.625 10.5 -9.1875 7.375 C-8.5275 7.045 -7.8675 6.715 -7.1875 6.375 C-7.105 7.468125 -7.0225 8.56125 -6.9375 9.6875 C-6.53995447 13.37903714 -6.53995447 13.37903714 -4.25 15.3125 C-2.27785663 16.5276522 -2.27785663 16.5276522 -0.1875 16.375 C-1.1775 15.715 -2.1675 15.055 -3.1875 14.375 C-3.48046875 11.9921875 -3.48046875 11.9921875 -3.375 9.25 C-3.33439453 7.88488281 -3.33439453 7.88488281 -3.29296875 6.4921875 C-3.25816406 5.79351563 -3.22335937 5.09484375 -3.1875 4.375 C-4.5075 4.705 -5.8275 5.035 -7.1875 5.375 C-4.68543012 0.20405558 -4.68543012 0.20405558 0 0 Z " fill="#183542" transform="translate(908.1875,537.625)"/>
<path d="M0 0 C0.99 0.33 1.98 0.66 3 1 C5.77538561 1.02966061 8.53485645 0.93418856 11.30859375 0.83984375 C14 1 14 1 18 3 C11.4 3 4.8 3 -2 3 C-2 30.06 -2 57.12 -2 85 C-3.32 84.34 -4.64 83.68 -6 83 C-5.92690613 82.38934189 -5.85381226 81.77868378 -5.77850342 81.14952087 C-4.96833649 73.54066095 -4.93140489 66.006364 -5.04709625 58.36590767 C-5.08979342 55.37368068 -5.11274244 52.38139149 -5.13712692 49.38896847 C-5.18260355 43.8424546 -5.23642436 38.29629336 -5.32226562 32.75024414 C-5.38162071 28.86666907 -5.41660634 24.98353599 -5.43544769 21.09956169 C-5.44717559 19.62628156 -5.46796654 18.15304403 -5.49808502 16.6800251 C-5.53907583 14.62670799 -5.54897313 12.57540284 -5.55175781 10.52172852 C-5.56587708 9.35577652 -5.57999634 8.18982452 -5.59454346 6.98854065 C-5 4 -5 4 -2.65301514 1.52989197 C-1.77752014 1.02502762 -0.90202515 0.52016327 0 0 Z " fill="#284857" transform="translate(609,474)"/>
<path d="M0 0 C0 0.66 0 1.32 0 2 C-0.64960693 1.98428955 -1.29921387 1.9685791 -1.96850586 1.95239258 C-4.95807931 1.88940663 -7.94751249 1.85080979 -10.9375 1.8125 C-11.95908203 1.78736328 -12.98066406 1.76222656 -14.03320312 1.73632812 C-22.51344685 1.65504783 -29.36394133 3.20301148 -36.75 7.4375 C-37.44609375 7.82808594 -38.1421875 8.21867187 -38.859375 8.62109375 C-49.68851542 15.59679917 -56.54377128 26.05071911 -59.6171875 38.5 C-60.77397989 46.05456258 -60.22073689 53.46769849 -58.33984375 60.84375 C-57.9670161 63.20927713 -58.26579447 64.74090606 -59 67 C-65.34077944 57.48883083 -63.91718224 42.80593628 -62 32 C-60.6875 29.9375 -60.6875 29.9375 -59 28 C-58.33037038 26.69947967 -57.68700921 25.38527934 -57.0625 24.0625 C-55.41224675 20.65409232 -53.46618864 17.89139358 -51 15 C-50.67 14.34 -50.34 13.68 -50 13 C-49.34 13 -48.68 13 -48 13 C-47.34 11.68 -46.68 10.36 -46 9 C-44.68 9 -43.36 9 -42 9 C-42 8.34 -42 7.68 -42 7 C-40.68 7 -39.36 7 -38 7 C-38 6.34 -38 5.68 -38 5 C-30.77297006 -0.42027246 -21.7761944 -0.38711131 -13.125 -0.6875 C-12.08085938 -0.73455078 -11.03671875 -0.78160156 -9.9609375 -0.83007812 C-2.26801658 -1.13400829 -2.26801658 -1.13400829 0 0 Z " fill="#053831" transform="translate(754,475)"/>
<path d="M0 0 C3.12453543 3.12453543 2.9696372 6.19627885 3.1328125 10.515625 C3.13023437 11.74796875 3.12765625 12.9803125 3.125 14.25 C3.12886719 16.11398437 3.12886719 16.11398437 3.1328125 18.015625 C3 21 3 21 2 22 C0.31198015 22.09353163 -1.37995207 22.11744791 -3.07055664 22.11352539 C-4.15160172 22.11344986 -5.23264679 22.11337433 -6.34645081 22.11329651 C-8.110485 22.10555458 -8.110485 22.10555458 -9.91015625 22.09765625 C-11.10732773 22.0962413 -12.30449921 22.09482635 -13.53794861 22.09336853 C-17.37949066 22.08774979 -21.22097543 22.07519411 -25.0625 22.0625 C-27.65950437 22.05748741 -30.25650965 22.05292409 -32.85351562 22.04882812 C-39.23569679 22.03777427 -45.6178443 22.02101792 -52 22 C-52.33 22.66 -52.66 23.32 -53 24 C-53 22.68 -53 21.36 -53 20 C-35.18 20 -17.36 20 1 20 C0.67 13.4 0.34 6.8 0 0 Z " fill="#A2B1BA" transform="translate(596,502)"/>
<path d="M0 0 C2 2 2 2 2.20254517 5.20169067 C2.190552 6.59699155 2.16720618 7.9922205 2.13525391 9.38720703 C2.12579239 10.14827759 2.11633087 10.90934814 2.10658264 11.69348145 C2.0728394 14.21516612 2.02474273 16.73636569 1.9765625 19.2578125 C1.9504021 21.00372033 1.92513456 22.74964175 1.90072632 24.49557495 C1.83400932 29.09561326 1.755131 33.69536657 1.67376709 38.29516602 C1.59291126 42.98703046 1.52349121 47.67906234 1.453125 52.37109375 C1.31331133 61.5809299 1.16065677 70.79050552 1 80 C0.34 79.67 -0.32 79.34 -1 79 C-1.02312392 68.84733849 -1.04091534 58.6946832 -1.05181217 48.54200077 C-1.05704089 43.82820267 -1.06413834 39.11442253 -1.07543945 34.40063477 C-1.08626873 29.85544596 -1.09227692 25.31027448 -1.09487724 20.76507378 C-1.09673142 19.02705042 -1.10035189 17.28902806 -1.10573006 15.55101204 C-1.11294103 13.12521405 -1.11399092 10.69948854 -1.11352539 8.27368164 C-1.11712067 7.54791931 -1.12071594 6.82215698 -1.12442017 6.07440186 C-1.11405216 1.11405216 -1.11405216 1.11405216 0 0 Z " fill="#072B3C" transform="translate(409,475)"/>
<path d="M0 0 C3.36179774 1.44077046 5.59156268 3.24750021 8 6 C8 6.66 8 7.32 8 8 C10.64 8 13.28 8 16 8 C16 7.34 16 6.68 16 6 C17.32 6 18.64 6 20 6 C20 5.34 20 4.68 20 4 C26.17139425 0.69902168 31.02606494 -0.15981981 38 -0.25 C39.794375 -0.28867187 39.794375 -0.28867187 41.625 -0.328125 C45.26709272 0.02596735 47.00181986 1.00121324 50 3 C50.86625 3 51.7325 3 52.625 3 C55 3 55 3 56.6875 4.375 C57.120625 4.91125 57.55375 5.4475 58 6 C60.76223278 8.76223278 63.20706617 8.57856291 67 9 C67 9.33 67 9.66 67 10 C60.58357324 10.51331414 57.26905105 10.00906059 52 6 C46.90229552 3.41357254 42.747466 2.52590576 37 2.625 C36.32710937 2.61339844 35.65421875 2.60179687 34.9609375 2.58984375 C28.58192989 2.62678781 24.16006566 4.39144046 19.0625 8.1875 C14.84924851 10.68105701 12.85132092 10.69304585 8 10 C5.1875 7.6875 5.1875 7.6875 3 5 C2.401875 4.443125 1.80375 3.88625 1.1875 3.3125 C0 2 0 2 0 0 Z " fill="#60C35D" transform="translate(702,549)"/>
<path d="M0 0 C6.82282903 1.01078949 10.54533256 6.66611709 14.421875 11.83203125 C17.99506392 16.74074375 19.18510829 19.94651871 20 26 C20.66 26.33 21.32 26.66 22 27 C23.05390562 31.94877422 23.46684337 37.11052208 22 42 C22.66 42 23.32 42 24 42 C24.20086443 45.71599191 24.1519437 46.77208445 22 50 C21.60986284 51.9896995 21.26797351 53.99019869 21 56 C20.67 56 20.34 56 20 56 C19.98541748 55.26475098 19.97083496 54.52950195 19.95581055 53.77197266 C19.88060745 50.3891622 19.78418818 47.00726189 19.6875 43.625 C19.66494141 42.46871094 19.64238281 41.31242188 19.61914062 40.12109375 C19.21291516 27.04801973 16.06714764 16.01096999 6.54296875 6.5625 C4.96065806 5.1670764 3.35561011 3.79674283 1.72265625 2.4609375 C1.15417969 1.97882813 0.58570313 1.49671875 0 1 C0 0.67 0 0.34 0 0 Z " fill="#053833" transform="translate(766,484)"/>
<path d="M0 0 C0.33 0 0.66 0 1 0 C1 5.28 1 10.56 1 16 C-8.69246058 20.84623029 -25.26893049 17.89554083 -35.875 17.5625 C-37.73826314 17.5091295 -39.60154449 17.45639087 -41.46484375 17.40429688 C-45.97680512 17.27679996 -50.48843519 17.1408068 -55 17 C-55 16.34 -55 15.68 -55 15 C-28.27 14.505 -28.27 14.505 -1 14 C-0.67 9.38 -0.34 4.76 0 0 Z " fill="#082D3D" transform="translate(252,509)"/>
<path d="M0 0 C3.342356 0.0587315 5.60891136 0.38682585 8.375 2.3125 C11.18916749 5.8482489 11.76876206 7.71567782 11.46484375 12.1484375 C10.45769598 15.58600775 8.60716126 17.27822476 5.7421875 19.33203125 C2.72385919 20.96339493 1.16454838 21.21301209 -2.1875 20.375 C-5.01454735 18.74401114 -7.22603759 16.99596862 -9.1875 14.375 C-9.625 10.5 -9.625 10.5 -9.1875 7.375 C-8.5275 7.045 -7.8675 6.715 -7.1875 6.375 C-7.105 7.468125 -7.0225 8.56125 -6.9375 9.6875 C-6.56739701 13.40943943 -6.56739701 13.40943943 -4.125 15.1875 C-3.485625 15.579375 -2.84625 15.97125 -2.1875 16.375 C-2.1875 17.035 -2.1875 17.695 -2.1875 18.375 C2.68074303 17.32215162 2.68074303 17.32215162 6.75 14.625 C8.60277985 10.70146619 8.15547206 7.40391617 6.8125 3.375 C5.22955218 3.32062393 3.64605744 3.28203729 2.0625 3.25 C1.18078125 3.22679687 0.2990625 3.20359375 -0.609375 3.1796875 C-3.3010858 3.38360498 -4.88654974 4.00948279 -7.1875 5.375 C-4.68543012 0.20405558 -4.68543012 0.20405558 0 0 Z " fill="#98B2C2" transform="translate(908.1875,537.625)"/>
<path d="M0 0 C3 2 3 2 3.68040466 4.31413269 C3.98799789 6.89913473 4.12039165 9.37156533 4.11352539 11.97387695 C4.11341209 13.41480461 4.11341209 13.41480461 4.11329651 14.88484192 C4.10813522 15.9089769 4.10297394 16.93311188 4.09765625 17.98828125 C4.0962413 19.04661667 4.09482635 20.10495209 4.09336853 21.19535828 C4.08778159 24.56776789 4.07523144 27.94011054 4.0625 31.3125 C4.05748331 33.60221258 4.0529207 35.89192621 4.04882812 38.18164062 C4.03781643 43.78778317 4.02109126 49.3938868 4 55 C3.34 54.67 2.68 54.34 2 54 C1.98969254 53.41197601 1.97938507 52.82395203 1.96876526 52.21810913 C1.86040168 46.08589224 1.74582892 39.95381345 1.62768555 33.82177734 C1.58443223 31.53469742 1.54275053 29.24758721 1.50268555 26.96044922 C1.44475001 23.66885254 1.3811229 20.37740699 1.31640625 17.0859375 C1.29969376 16.06696381 1.28298126 15.04799011 1.26576233 13.99813843 C1.16687022 9.23558827 0.97476262 4.68302326 0 0 Z " fill="#082C3C" transform="translate(659,503)"/>
<path d="M0 0 C-2.9710633 1.5753545 -5.93674473 2.69034664 -9.125 3.75 C-14.16108998 5.52071078 -18.32809661 7.89883595 -22.7109375 10.92578125 C-25.56556958 12.26541234 -27.03580778 11.89554217 -30 11 C-30 10.34 -30 9.68 -30 9 C-30.66 9 -31.32 9 -32 9 C-32 8.34 -32 7.68 -32 7 C-33.32 6.34 -34.64 5.68 -36 5 C-36 4.34 -36 3.68 -36 3 C-31.125 4.875 -31.125 4.875 -30 6 C-24.24483728 6.50483883 -20.89790818 5.7834827 -15.8671875 3.0234375 C-10.50089928 0.08208287 -5.96693916 -0.20575652 0 0 Z " fill="#094037" transform="translate(740,552)"/>
<path d="M0 0 C0.44730469 0.39832031 0.89460937 0.79664063 1.35546875 1.20703125 C1.96003906 1.73683594 2.56460938 2.26664063 3.1875 2.8125 C3.77917969 3.33457031 4.37085938 3.85664062 4.98046875 4.39453125 C10.92617841 9.12119792 15.75991378 9.75315016 23.25 9.4921875 C30.13800356 8.58813703 34.30749334 4.82285407 39 0 C37.03488372 6.80232558 37.03488372 6.80232558 34 9 C28.75670065 11.63154269 24.70869291 12.47424997 18.875 12.375 C18.18535156 12.38660156 17.49570312 12.39820313 16.78515625 12.41015625 C12.38328331 12.3849065 9.46583711 11.76457824 6 9 C6 8.34 6 7.68 6 7 C5.38125 6.95875 4.7625 6.9175 4.125 6.875 C3.42375 6.58625 2.7225 6.2975 2 6 C0.75 2.9375 0.75 2.9375 0 0 Z " fill="#66D05D" transform="translate(720,536)"/>
<path d="M0 0 C1.485 0.99 1.485 0.99 3 2 C3.38818359 4.49023438 3.38818359 4.49023438 3.3984375 7.59375 C3.40230469 8.70621094 3.40617188 9.81867187 3.41015625 10.96484375 C3.39855469 12.13144531 3.38695312 13.29804687 3.375 14.5 C3.38660156 15.66660156 3.39820313 16.83320312 3.41015625 18.03515625 C3.40628906 19.14761719 3.40242187 20.26007812 3.3984375 21.40625 C3.39505371 22.43041016 3.39166992 23.45457031 3.38818359 24.50976562 C3.19603271 25.74243164 3.19603271 25.74243164 3 27 C2.01 27.66 1.02 28.32 0 29 C0 19.43 0 9.86 0 0 Z " fill="#052C40" transform="translate(629,528)"/>
<path d="M0 0 C2.875 -0.125 2.875 -0.125 6 0 C8 2 8 2 8.1953125 3.9453125 C8.13020833 5.96354167 8.06510417 7.98177083 8 10 C7.01 10 6.02 10 5 10 C5 9.01 5 8.02 5 7 C4.34 7 3.68 7 3 7 C3 7.99 3 8.98 3 10 C2.01 10 1.02 10 0 10 C0 6.7 0 3.4 0 0 Z " fill="#7F94A0" transform="translate(905,542)"/>
<path d="M0 0 C0.99 0.33 1.98 0.66 3 1 C2.67 1.99 2.34 2.98 2 4 C1.92303735 5.5087824 1.90271545 7.02082958 1.91821289 8.53149414 C1.9247438 9.44576675 1.93127472 10.36003937 1.93800354 11.30201721 C1.95515663 12.77867104 1.95515663 12.77867104 1.97265625 14.28515625 C1.98529786 16.36262857 1.99765916 18.44010262 2.00976562 20.51757812 C2.03464267 23.79863816 2.06267352 27.07960965 2.09594727 30.3605957 C2.1260379 33.52295519 2.14388667 36.68519982 2.16015625 39.84765625 C2.17361588 40.83411636 2.1870755 41.82057648 2.20094299 42.83692932 C2.20432175 43.74804977 2.2077005 44.65917023 2.21118164 45.59790039 C2.21863907 46.40159561 2.2260965 47.20529083 2.23377991 48.03334045 C2 50 2 50 0 52 C0 34.84 0 17.68 0 0 Z " fill="#012638" transform="translate(283,506)"/>
<path d="M0 0 C1.25683594 0.00322266 2.51367188 0.00644531 3.80859375 0.00976562 C5.12730469 0.01814453 6.44601563 0.02652344 7.8046875 0.03515625 C9.14452961 0.04017136 10.4843735 0.04473424 11.82421875 0.04882812 C15.10941956 0.06064539 18.39453147 0.07712008 21.6796875 0.09765625 C21.6796875 1.08765625 21.6796875 2.07765625 21.6796875 3.09765625 C11.7796875 3.09765625 1.8796875 3.09765625 -8.3203125 3.09765625 C-8.3203125 2.43765625 -8.3203125 1.77765625 -8.3203125 1.09765625 C-5.50207058 -0.31146471 -3.14779968 -0.01417928 0 0 Z " fill="#0C2737" transform="translate(206.3203125,503.90234375)"/>
<path d="M0 0 C0.66 0 1.32 0 2 0 C2 0.66 2 1.32 2 2 C10.58 2 19.16 2 28 2 C26 4 26 4 23.29443359 4.22705078 C22.17375488 4.21657715 21.05307617 4.20610352 19.8984375 4.1953125 C18.08085938 4.18564453 18.08085938 4.18564453 16.2265625 4.17578125 C14.95554687 4.15902344 13.68453125 4.14226562 12.375 4.125 C11.09625 4.11597656 9.8175 4.10695313 8.5 4.09765625 C5.33314833 4.07402303 2.16666576 4.04107629 -1 4 C-0.67 2.68 -0.34 1.36 0 0 Z " fill="#0E2A3A" transform="translate(546,503)"/>
<path d="M0 0 C-2.63904371 1.41377341 -5.07120629 2.37240135 -8 3 C-8 3.66 -8 4.32 -8 5 C-8.66 5 -9.32 5 -10 5 C-10 5.66 -10 6.32 -10 7 C-10.98722653 8.01261235 -11.98917715 9.01094128 -13 10 C-16.81147046 15.69091968 -17.72334165 21.24953615 -18 28 C-18.33 28 -18.66 28 -19 28 C-19.6536144 19.54658704 -19.13330576 12.97634807 -14 6 C-9.82264134 1.71113074 -6.21840691 -0.93276104 0 0 Z " fill="#5FC15B" transform="translate(734,500)"/>
<path d="M0 0 C4.72462301 4.35162646 6.77595257 7.24450762 7.30078125 13.69921875 C7.30464844 15.01535156 7.30851563 16.33148437 7.3125 17.6875 C7.32861328 18.36361328 7.34472656 19.03972656 7.36132812 19.73632812 C7.36328125 21.69921875 7.36328125 21.69921875 7 25 C6.01 25.66 5.02 26.32 4 27 C4.01160156 25.90300781 4.02320313 24.80601562 4.03515625 23.67578125 C4.04453964 22.22135588 4.05363925 20.76692865 4.0625 19.3125 C4.07087891 18.59126953 4.07925781 17.87003906 4.08789062 17.12695312 C4.10532516 13.30879079 4.11659786 9.67283447 3 6 C2.34 5.67 1.68 5.34 1 5 C0.375 2.4375 0.375 2.4375 0 0 Z " fill="#0B4433" transform="translate(755,506)"/>
<path d="M0 0 C2.475 0.495 2.475 0.495 5 1 C6.32286246 5.96073422 6.08893197 10.91111512 6 16 C5.34 16 4.68 16 4 16 C4.33 14.35 4.66 12.7 5 11 C2.525 10.01 2.525 10.01 0 9 C0 6.03 0 3.06 0 0 Z " fill="#042A3E" transform="translate(169,515)"/>
<path d="M0 0 C0.33 0 0.66 0 1 0 C1 4.62 1 9.24 1 14 C1.66 14 2.32 14 3 14 C6 19.75 6 19.75 6 22 C6.66 22 7.32 22 8 22 C8.33 23.32 8.66 24.64 9 26 C9.66 26 10.32 26 11 26 C10.67 26.66 10.34 27.32 10 28 C4.70943682 24.37218525 1.16921369 19.59758057 -0.8125 13.5 C-1.16018308 8.86422566 -1.4892798 4.46783941 0 0 Z " fill="#145536" transform="translate(717,515)"/>
<path d="M0 0 C1.01610352 -0.02416992 1.01610352 -0.02416992 2.05273438 -0.04882812 C7.16822633 -0.05373272 10.57149284 1.09334522 15.0625 3.3125 C14.7325 3.9725 14.4025 4.6325 14.0625 5.3125 C12.08256459 5.00490822 10.10356401 4.6912932 8.125 4.375 C7.02285156 4.20097656 5.92070313 4.02695312 4.78515625 3.84765625 C2.0625 3.3125 2.0625 3.3125 1.0625 2.3125 C-4.72066385 2.00812296 -9.37901555 2.72436159 -14.9375 4.3125 C-13.9375 2.3125 -13.9375 2.3125 -11.37109375 1.20703125 C-7.52913363 0.20611104 -3.94051164 -0.01864007 0 0 Z " fill="#16563A" transform="translate(738.9375,550.6875)"/>
<path d="M0 0 C2.78312888 0.28790988 3.79341954 0.75449858 5.6171875 2.921875 C7.59401176 7.32226347 7.39840482 11.29650057 7.3125 16.0625 C7.31572266 16.96033203 7.31894531 17.85816406 7.32226562 18.78320312 C7.28665249 23.13771832 7.20334582 26.15305359 5 30 C4.34 30 3.68 30 3 30 C3.32484375 29.3296875 3.6496875 28.659375 3.984375 27.96875 C5.22295929 24.34827285 5.26528767 21.32191654 5.25 17.5 C5.25515625 16.2109375 5.2603125 14.921875 5.265625 13.59375 C4.86582453 8.18468481 2.85028432 4.53454323 0 0 Z " fill="#51AC56" transform="translate(756,506)"/>
<path d="M0 0 C1.76923828 0.01353516 1.76923828 0.01353516 3.57421875 0.02734375 C4.47785156 0.03894531 5.38148438 0.05054688 6.3125 0.0625 C6.3125 0.3925 6.3125 0.7225 6.3125 1.0625 C5.5390625 1.05347656 4.765625 1.04445313 3.96875 1.03515625 C-1.89054082 1.20194299 -5.77741562 1.47816049 -10.1875 5.5625 C-10.7753125 6.1915625 -11.363125 6.820625 -11.96875 7.46875 C-13.87544805 9.2367791 -15.15107068 9.66201116 -17.6875 10.0625 C-16.12739422 5.85021439 -13.2029607 3.71703155 -9.6875 1.0625 C-6.26517028 -0.07827657 -3.60076783 -0.03565117 0 0 Z " fill="#284654" transform="translate(483.6875,496.9375)"/>
<path d="M0 0 C0 0.33 0 0.66 0 1 C-1.05058594 1.03738281 -2.10117187 1.07476562 -3.18359375 1.11328125 C-11.03576127 1.4592741 -17.57786323 2.23242358 -25 5 C-25.99 4.67 -26.98 4.34 -28 4 C-27.01 3.67 -26.02 3.34 -25 3 C-25 2.34 -25 1.68 -25 1 C-16.52283008 -1.51175405 -8.6762833 -1.50891884 0 0 Z " fill="#0A2A3A" transform="translate(570,475)"/>
<path d="M0 0 C0.33 0.66 0.66 1.32 1 2 C-1.55428052 6.2571342 -3.46625255 8.90750118 -8 11 C-10.69591571 11.20952713 -13.13450509 11.28744431 -15.8125 11.1875 C-16.85180664 11.16719727 -16.85180664 11.16719727 -17.91210938 11.14648438 C-19.60841265 11.11138845 -21.30431136 11.05758943 -23 11 C-23 10.67 -23 10.34 -23 10 C-22.23816406 9.99742187 -21.47632813 9.99484375 -20.69140625 9.9921875 C-12.97562159 9.7032068 -7.79666317 8.22479505 -2 3 C-1.34 2.01 -0.68 1.02 0 0 Z " fill="#57B859" transform="translate(758,536)"/>
<path d="M0 0 C-2.31343459 0.77114486 -3.74854978 1.05466309 -6.15625 0.53125 C-9.72166729 -0.13481697 -13.20209463 -0.10741413 -16.8125 -0.0625 C-17.50537109 -0.05798828 -18.19824219 -0.05347656 -18.91210938 -0.04882812 C-20.60811068 -0.03713156 -22.30406703 -0.01919924 -24 0 C-18.03438131 -5.96561869 -6.69603098 -3.57121653 0 0 Z " fill="#0E4E32" transform="translate(752,503)"/>
<path d="M0 0 C0.99 0 1.98 0 3 0 C3 1.32 3 2.64 3 4 C-2.94 4 -8.88 4 -15 4 C-15 3.34 -15 2.68 -15 2 C-11.84794071 0.94931357 -9.67390424 0.93036614 -6.375 1 C-4.58372817 1.03761201 -2.79105866 1.04667254 -1 1 C-0.67 0.67 -0.34 0.34 0 0 Z " fill="#BECED4" transform="translate(876,554)"/>
<path d="M0 0 C0.66 0.33 1.32 0.66 2 1 C1.57702637 1.45568359 1.15405273 1.91136719 0.71826172 2.38085938 C-4.03912982 7.99421833 -4.89604747 12.25967004 -4.875 19.5 C-4.895625 20.4178125 -4.91625 21.335625 -4.9375 22.28125 C-4.98417717 24.52175436 -5.00448177 26.75911373 -5 29 C-5.33 29 -5.66 29 -6 29 C-6.05814085 25.41673499 -6.09364357 21.83359162 -6.125 18.25 C-6.14175781 17.23421875 -6.15851562 16.2184375 -6.17578125 15.171875 C-6.18222656 14.1921875 -6.18867187 13.2125 -6.1953125 12.203125 C-6.20578613 11.30239258 -6.21625977 10.40166016 -6.22705078 9.47363281 C-5.98303052 6.81512386 -5.41280814 5.24941218 -4 3 C-1.875 1.25 -1.875 1.25 0 0 Z " fill="#1E3D4F" transform="translate(635,499)"/>
<path d="M0 0 C0.88945312 0.07863281 1.77890625 0.15726562 2.6953125 0.23828125 C3.77425781 0.46064453 3.77425781 0.46064453 4.875 0.6875 C5.205 1.3475 5.535 2.0075 5.875 2.6875 C5.00617188 2.73648437 4.13734375 2.78546875 3.2421875 2.8359375 C2.08976563 2.91070312 0.93734375 2.98546875 -0.25 3.0625 C-1.95542969 3.16691406 -1.95542969 3.16691406 -3.6953125 3.2734375 C-7.07893616 3.68193876 -9.94112441 4.49717569 -13.125 5.6875 C-8.71064036 1.03452632 -6.42216463 -0.62723765 0 0 Z " fill="#5C737E" transform="translate(215.125,493.3125)"/>
<path d="M0 0 C2.75706651 3.15093316 4.00679856 6.39604529 5.3515625 10.29296875 C5.86849816 12.00513961 5.86849816 12.00513961 7 13 C7.04092937 15.33297433 7.04241723 17.66705225 7 20 C6.34 18.68 5.68 17.36 5 16 C4.34 16 3.68 16 3 16 C2.86722656 15.26394531 2.73445312 14.52789063 2.59765625 13.76953125 C2.42105469 12.79371094 2.24445312 11.81789063 2.0625 10.8125 C1.80146484 9.36810547 1.80146484 9.36810547 1.53515625 7.89453125 C1.0476265 5.25760028 0.53328895 2.6280095 0 0 Z " fill="#37515E" transform="translate(802,534)"/>
<path d="M0 0 C-3.10654766 1.6377308 -6.25745025 2.87987676 -9.5625 4.0625 C-10.51253906 4.40410156 -11.46257813 4.74570312 -12.44140625 5.09765625 C-14.28828524 5.74899831 -16.1421282 6.3807094 -18 7 C-17.75390625 5.109375 -17.75390625 5.109375 -17 3 C-11.76170059 -0.071913 -5.9092127 -0.32232069 0 0 Z " fill="#033534" transform="translate(740,552)"/>
<path d="M0 0 C0.66 0.33 1.32 0.66 2 1 C1.95359375 1.68707031 1.9071875 2.37414062 1.859375 3.08203125 C1.82328125 3.98308594 1.7871875 4.88414062 1.75 5.8125 C1.70359375 6.70582031 1.6571875 7.59914063 1.609375 8.51953125 C1.76018967 11.16674709 1.76018967 11.16674709 4.015625 12.82421875 C4.67046875 13.21222656 5.3253125 13.60023438 6 14 C0.25 13.25 0.25 13.25 -2 11 C-2.46376812 3.69565217 -2.46376812 3.69565217 0 0 Z " fill="#092735" transform="translate(904,541)"/>
<path d="M0 0 C1 3 1 3 0 5.9375 C-2.56394608 9.86354244 -4.83200689 10.95532413 -9 13 C-9.66 12.34 -10.32 11.68 -11 11 C-10.28972656 10.37351562 -9.57945312 9.74703125 -8.84765625 9.1015625 C-7.46900391 7.87566406 -7.46900391 7.87566406 -6.0625 6.625 C-5.14597656 5.81289063 -4.22945312 5.00078125 -3.28515625 4.1640625 C-0.96398605 2.21290653 -0.96398605 2.21290653 0 0 Z " fill="#2F4B57" transform="translate(519,541)"/>
<path d="M0 0 C1.48831242 0.00667405 2.97660807 0.01863442 4.46484375 0.03515625 C5.22345703 0.03966797 5.98207031 0.04417969 6.76367188 0.04882812 C8.64326246 0.06064945 10.52281274 0.07858547 12.40234375 0.09765625 C12.40234375 0.42765625 12.40234375 0.75765625 12.40234375 1.09765625 C8.11234375 1.09765625 3.82234375 1.09765625 -0.59765625 1.09765625 C-0.59765625 1.75765625 -0.59765625 2.41765625 -0.59765625 3.09765625 C-8.51765625 4.58265625 -8.51765625 4.58265625 -16.59765625 6.09765625 C-16.26765625 5.43765625 -15.93765625 4.77765625 -15.59765625 4.09765625 C-13.12890625 3.28125 -13.12890625 3.28125 -10.09765625 2.53515625 C-6.35767584 1.60498071 -3.72318175 0.10106357 0 0 Z " fill="#3D924A" transform="translate(734.59765625,475.90234375)"/>
<path d="M0 0 C1.24040039 0.01353516 1.24040039 0.01353516 2.50585938 0.02734375 C4.52486708 0.05068488 6.54372356 0.08654712 8.5625 0.125 C8.5625 0.455 8.5625 0.785 8.5625 1.125 C7.51191406 1.16238281 6.46132812 1.19976562 5.37890625 1.23828125 C-3.81248447 1.54776061 -3.81248447 1.54776061 -12.6875 3.75 C-16.3866178 5.10634319 -16.98868337 5.26951879 -20.4375 4.125 C-13.74183377 0.37542691 -7.49954986 -0.15712191 0 0 Z " fill="#0B2838" transform="translate(142.4375,474.875)"/>
<path d="M0 0 C3.64121479 0.01742208 4.62970143 0.23393767 7.8125 2.3125 C8.7715625 3.3025 8.7715625 3.3025 9.75 4.3125 C9.42 5.3025 9.09 6.2925 8.75 7.3125 C8.09 5.9925 7.43 4.6725 6.75 3.3125 C5.16705218 3.25812393 3.58355744 3.21953729 2 3.1875 C1.11828125 3.16429687 0.2365625 3.14109375 -0.671875 3.1171875 C-3.3635858 3.32110498 -4.94904974 3.94698279 -7.25 5.3125 C-4.75176257 0.14947597 -4.75176257 0.14947597 0 0 Z " fill="#A5C2D0" transform="translate(908.25,537.6875)"/>
<path d="M0 0 C0.33 0 0.66 0 1 0 C1.33 2.31 1.66 4.62 2 7 C2.66 7 3.32 7 4 7 C4.20086443 10.71599191 4.1519437 11.77208445 2 15 C1.60986284 16.9896995 1.26797351 18.99019869 1 21 C0.67 21 0.34 21 0 21 C0 14.07 0 7.14 0 0 Z " fill="#09353D" transform="translate(786,519)"/>
<path d="M0 0 C10.58569133 -0.86140345 10.58569133 -0.86140345 15.1875 2.5 C16.115625 3.325 17.04375 4.15 18 5 C17.34 6.65 16.68 8.3 16 10 C15.34 10 14.68 10 14 10 C14.33 8.35 14.66 6.7 15 5 C14.030625 4.690625 13.06125 4.38125 12.0625 4.0625 C9 3 9 3 8 2 C6.65252916 1.76924918 5.29622435 1.58846937 3.9375 1.4375 C2.638125 1.293125 1.33875 1.14875 0 1 C0 0.67 0 0.34 0 0 Z " fill="#1B3A4A" transform="translate(643,497)"/>
<path d="M0 0 C0 0.99 0 1.98 0 3 C1.32 3.33 2.64 3.66 4 4 C3.01 4.495 3.01 4.495 2 5 C0.948125 4.54625 -0.10375 4.0925 -1.1875 3.625 C-7.44637267 1.0819701 -14.33144547 1.2518074 -21 1 C-21 0.67 -21 0.34 -21 0 C-18.62543835 -0.1963696 -16.25079981 -0.38231294 -13.875 -0.5625 C-13.20984375 -0.61857422 -12.5446875 -0.67464844 -11.859375 -0.73242188 C-7.7271959 -1.03625857 -4.05304259 -0.85227531 0 0 Z " fill="#576F7C" transform="translate(663,476)"/>
<path d="M0 0 C3.9983534 5.9975301 4.2801001 11.97589181 4.125 18.9375 C4.11597656 19.71673828 4.10695313 20.49597656 4.09765625 21.29882812 C4.07433691 23.19935447 4.03847586 25.09972008 4 27 C3.67 27 3.34 27 3 27 C2.92652344 25.31970703 2.92652344 25.31970703 2.8515625 23.60546875 C2.77652144 22.13278797 2.70097418 20.66013293 2.625 19.1875 C2.57859375 18.08051758 2.57859375 18.08051758 2.53125 16.95117188 C2.32653852 13.18106885 2.13566173 11.20349259 0 8 C-0.25760279 5.30547479 -0.08900053 2.71451625 0 0 Z " fill="#459F52" transform="translate(782,504)"/>
<path d="M0 0 C1.11126362 3.33379087 0.95133201 5.62709561 0 9 C-0.99 10.485 -0.99 10.485 -2 12 C-2.66 12 -3.32 12 -4 12 C-4 12.99 -4 13.98 -4 15 C-4.66 15 -5.32 15 -6 15 C-4.36041242 9.76727367 -2.61047965 4.84803364 0 0 Z " fill="#405A69" transform="translate(374,541)"/>
<path d="M0 0 C1.5 2.625 1.5 2.625 2 5 C1.46375 4.71125 0.9275 4.4225 0.375 4.125 C-5.33610127 1.4197415 -10.76951724 0.52612965 -17 0 C-17 -0.33 -17 -0.66 -17 -1 C-10.81343025 -2.05973649 -5.9225735 -2.28590556 0 0 Z " fill="#59B95B" transform="translate(753,500)"/>
<path d="M0 0 C1.09570312 0.00902344 2.19140625 0.01804687 3.3203125 0.02734375 C4.16335938 0.03894531 5.00640625 0.05054688 5.875 0.0625 C5.875 0.3925 5.875 0.7225 5.875 1.0625 C4.14643541 1.5438341 2.41711929 2.02246971 0.6875 2.5 C-0.75689453 2.90025391 -0.75689453 2.90025391 -2.23046875 3.30859375 C-4.85163697 3.99130018 -7.463935 4.56142195 -10.125 5.0625 C-7.72498228 -0.25182494 -5.65089468 -0.0601159 0 0 Z " fill="#08293B" transform="translate(641.125,474.9375)"/>
<path d="M0 0 C6.27 0 12.54 0 19 0 C18.67 0.66 18.34 1.32 18 2 C15.49609375 2.4140625 15.49609375 2.4140625 12.4375 2.625 C11.42558594 2.69976563 10.41367187 2.77453125 9.37109375 2.8515625 C8.58863281 2.90054688 7.80617188 2.94953125 7 3 C7 2.34 7 1.68 7 1 C4.69 1 2.38 1 0 1 C0 0.67 0 0.34 0 0 Z " fill="#082A3F" transform="translate(472,560)"/>
<path d="M0 0 C1.5625 1.375 1.5625 1.375 3 3 C5.76223278 5.76223278 8.20706617 5.57856291 12 6 C12 6.33 12 6.66 12 7 C5.68512996 7.5051896 2.11491613 7.14064639 -3 3 C-3.99 2.34 -4.98 1.68 -6 1 C-3 0 -3 0 0 0 Z " fill="#53B257" transform="translate(757,552)"/>
<path d="M0 0 C0.33 0 0.66 0 1 0 C1.13277344 1.21816406 1.26554688 2.43632813 1.40234375 3.69140625 C1.58066967 5.3151107 1.75905843 6.93880825 1.9375 8.5625 C2.02451172 9.36236328 2.11152344 10.16222656 2.20117188 10.98632812 C2.71761452 15.67256697 3.30521531 20.33680546 4 25 C2.07688765 23.38623548 1.1019465 22.41012064 0.48828125 19.94140625 C-0.00348049 13.28623072 -0.10318379 6.67255166 0 0 Z " fill="#0C4633" transform="translate(692,517)"/>
<path d="M0 0 C6.97986313 0.31021614 12.07291522 3.4951958 18 7 C17.34 7.66 16.68 8.32 16 9 C16 8.34 16 7.68 16 7 C15.34 6.896875 14.68 6.79375 14 6.6875 C10.16158991 5.80786436 6.66903309 4.43030104 3 3 C3 2.34 3 1.68 3 1 C2.01 0.67 1.02 0.34 0 0 Z " fill="#5DBF5C" transform="translate(749,478)"/>
<path d="M0 0 C0.33 0.99 0.66 1.98 1 3 C2.32 3 3.64 3 5 3 C5.33 2.34 5.66 1.68 6 1 C6.33 3.31 6.66 5.62 7 8 C6.01 8 5.02 8 4 8 C4 7.01 4 6.02 4 5 C3.34 5 2.68 5 2 5 C2 5.99 2 6.98 2 8 C1.34 8 0.68 8 0 8 C0 5.36 0 2.72 0 0 Z " fill="#BBCED8" transform="translate(906,544)"/>
<path d="M0 0 C0.66 0.33 1.32 0.66 2 1 C1.91621094 1.66386719 1.83242188 2.32773437 1.74609375 3.01171875 C0.94574958 9.54720848 0.94574958 9.54720848 2 16 C-0.475 15.01 -0.475 15.01 -3 14 C-3 13.34 -3 12.68 -3 12 C-2.34 12 -1.68 12 -1 12 C-1.33 9.36 -1.66 6.72 -2 4 C-1.34 4 -0.68 4 0 4 C0 2.68 0 1.36 0 0 Z " fill="#082B3D" transform="translate(898,539)"/>
<path d="M0 0 C6.27 0 12.54 0 19 0 C19 0.33 19 0.66 19 1 C13.72 1 8.44 1 3 1 C2.67 1.99 2.34 2.98 2 4 C1.01 4.66 0.02 5.32 -1 6 C-0.67 4.02 -0.34 2.04 0 0 Z " fill="#BACBD3" transform="translate(835,478)"/>
<path d="M0 0 C5.61 0 11.22 0 17 0 C13 3 13 3 9.765625 2.85546875 C8.60546875 2.63503906 7.4453125 2.41460938 6.25 2.1875 C5.07953125 1.97480469 3.9090625 1.76210938 2.703125 1.54296875 C1.36507812 1.27419922 1.36507812 1.27419922 0 1 C0 0.67 0 0.34 0 0 Z " fill="#0A2A3C" transform="translate(555,560)"/>
<path d="M0 0 C0.66 0 1.32 0 2 0 C2 0.99 2 1.98 2 3 C3.32 2.67 4.64 2.34 6 2 C5.125 5.875 5.125 5.875 4 7 C2.00041636 7.04080783 -0.00045254 7.04254356 -2 7 C-1.34 6.34 -0.68 5.68 0 5 C-0.66 4.34 -1.32 3.68 -2 3 C-1.34 3 -0.68 3 0 3 C0 2.01 0 1.02 0 0 Z " fill="#2A4754" transform="translate(908,549)"/>
<path d="M0 0 C0.99 0.33 1.98 0.66 3 1 C2.67 1.66 2.34 2.32 2 3 C-4.6 3 -11.2 3 -18 3 C-13.89231518 0.94615759 -12.30933582 0.80131032 -7.875 0.9375 C-3.78194631 1.19150196 -3.78194631 1.19150196 0 0 Z " fill="#042839" transform="translate(430,474)"/>
<path d="M0 0 C0.33 0 0.66 0 1 0 C1 2.31 1 4.62 1 7 C0.01 7.495 0.01 7.495 -1 8 C-1.46523063 9.89533342 -1.46523063 9.89533342 -1.625 12.0625 C-1.74875 13.361875 -1.8725 14.66125 -2 16 C-2.33 16 -2.66 16 -3 16 C-3.56122991 4.1310267 -3.56122991 4.1310267 0 0 Z " fill="#1B3C4B" transform="translate(466,508)"/>
<path d="M0 0 C0.99 0.33 1.98 0.66 3 1 C5.77538561 1.02966061 8.53485645 0.93418856 11.30859375 0.83984375 C14 1 14 1 18 3 C11.07 3 4.14 3 -3 3 C-2.01 2.01 -1.02 1.02 0 0 Z " fill="#042737" transform="translate(609,474)"/>
<path d="M0 0 C1.32 1.32 2.64 2.64 4 4 C4.33 3.01 4.66 2.02 5 1 C4.67 3.64 4.34 6.28 4 9 C3.01 9 2.02 9 1 9 C0.67 6.03 0.34 3.06 0 0 Z " fill="#254250" transform="translate(868,512)"/>
<path d="M0 0 C0.66 0.33 1.32 0.66 2 1 C0.75645114 2.29787866 -0.4951264 3.58806759 -1.75 4.875 C-2.44609375 5.59429687 -3.1421875 6.31359375 -3.859375 7.0546875 C-5.85122217 8.86479679 -7.5427658 9.94848086 -10 11 C-8.55218207 7.55571735 -6.72305391 5.63869038 -3.875 3.25 C-3.15054688 2.63640625 -2.42609375 2.0228125 -1.6796875 1.390625 C-0.84824219 0.70226562 -0.84824219 0.70226562 0 0 Z " fill="#C4D3DB" transform="translate(124,480)"/>
<path d="M0 0 C-2.02917452 3.04376178 -2.72582285 3.74810874 -6 5 C-7.32 5 -8.64 5 -10 5 C-10 4.34 -10 3.68 -10 3 C-6.58168085 0.4606772 -4.24223102 -0.3636198 0 0 Z " fill="#2C4856" transform="translate(243,553)"/>
<path d="M0 0 C0.66 0.33 1.32 0.66 2 1 C1.34 1.66 0.68 2.32 0 3 C-0.16681109 6.08347826 -0.16681109 6.08347826 0 9 C-0.99 9 -1.98 9 -3 9 C-3 8.34 -3 7.68 -3 7 C-3.99 7.33 -4.98 7.66 -6 8 C-4.55746343 4.63408134 -2.66735273 2.48952921 0 0 Z " fill="#46616F" transform="translate(551,496)"/>
<path d="M0 0 C1.32 0 2.64 0 4 0 C3.34 1.32 2.68 2.64 2 4 C1.01 4 0.02 4 -1 4 C-1.33 4.99 -1.66 5.98 -2 7 C-2.66 7 -3.32 7 -4 7 C-3.34 5.35 -2.68 3.7 -2 2 C-1.34 2 -0.68 2 0 2 C0 1.34 0 0.68 0 0 Z " fill="#074035" transform="translate(724,505)"/>
<path d="M0 0 C3.88375805 0.57537156 6.17781201 2.33036271 9 5 C9.64453125 7.13671875 9.64453125 7.13671875 10 9 C8.70391053 8.06862408 7.41328368 7.1296434 6.125 6.1875 C5.40570312 5.66542969 4.68640625 5.14335937 3.9453125 4.60546875 C2 3 2 3 0 0 Z " fill="#0B4633" transform="translate(766,484)"/>
<path d="M0 0 C-1.55603771 3.81936528 -3.95604931 6.26044438 -7 9 C-7.66 9 -8.32 9 -9 9 C-7.45665977 5.21180126 -4.44676575 0 0 0 Z " fill="#D5E2E7" transform="translate(193,483)"/>
<path d="M0 0 C0.33 0 0.66 0 1 0 C1 4.29 1 8.58 1 13 C0.01 12.01 -0.98 11.02 -2 10 C-1.85546875 7.51953125 -1.85546875 7.51953125 -1.1875 4.8125 C-0.97480469 3.91144531 -0.76210938 3.01039063 -0.54296875 2.08203125 C-0.36378906 1.39496094 -0.18460937 0.70789063 0 0 Z " fill="#0B2A3B" transform="translate(406,448)"/>
<path d="M0 0 C0.33 0 0.66 0 1 0 C1.05399736 1.45792884 1.09279177 2.91642712 1.125 4.375 C1.14820313 5.18710937 1.17140625 5.99921875 1.1953125 6.8359375 C1 9 1 9 -1 11 C-1.99 10.67 -2.98 10.34 -4 10 C-3.34 9.01 -2.68 8.02 -2 7 C-1.29187186 4.67891331 -0.61975848 2.34622853 0 0 Z " fill="#8DA9B9" transform="translate(918,543)"/>
<path d="M0 0 C2.96404505 2.80804268 5.44499019 5.18315774 7 9 C6.01 9 5.02 9 4 9 C3.34 7.35 2.68 5.7 2 4 C1.34 4 0.68 4 0 4 C0 2.68 0 1.36 0 0 Z " fill="#0A4236" transform="translate(696,543)"/>
<path d="M0 0 C0.83438967 2.33629107 1.22334675 3.50176494 0.1875 5.8125 C-0.204375 6.534375 -0.59625 7.25625 -1 8 C-1.69730806 10.3243602 -2.36912152 12.65673706 -3 15 C-3.66 15 -4.32 15 -5 15 C-4.54705135 13.24859857 -4.08741252 11.49892656 -3.625 9.75 C-3.36976563 8.77546875 -3.11453125 7.8009375 -2.8515625 6.796875 C-2.10401491 4.34162697 -1.22876183 2.24382595 0 0 Z " fill="#B5C5CC" transform="translate(884,486)"/>
<path d="M0 0 C0.66 0 1.32 0 2 0 C0.34908222 4.29238623 -2.73754566 6.8793915 -6 10 C-6.66 9.67 -7.32 9.34 -8 9 C-6.71520959 7.49410612 -5.42195918 5.99542625 -4.125 4.5 C-3.04605469 3.24703125 -3.04605469 3.24703125 -1.9453125 1.96875 C-1.30335938 1.3190625 -0.66140625 0.669375 0 0 Z " fill="#CBD7DD" transform="translate(456,485)"/>
<path d="M0 0 C1.45947705 0.06006078 2.91779272 0.1488689 4.375 0.25 C5.59316406 0.31960938 5.59316406 0.31960938 6.8359375 0.390625 C9 1 9 1 10.2890625 3.046875 C10.64097656 4.01367188 10.64097656 4.01367188 11 5 C7.27566618 3.7874262 3.62197194 2.49140021 0 1 C0 0.67 0 0.34 0 0 Z " fill="#3F5B6B" transform="translate(147,509)"/>
<path d="M0 0 C0.33 1.32 0.66 2.64 1 4 C-1.57213134 5.61949011 -2.67669159 6.04408751 -5.75 5.625 C-6.4925 5.41875 -7.235 5.2125 -8 5 C-8 4.67 -8 4.34 -8 4 C-7.236875 3.896875 -6.47375 3.79375 -5.6875 3.6875 C-2.82940576 2.95635961 -1.84257115 2.23048087 0 0 Z " fill="#264456" transform="translate(507,501)"/>
<path d="M0 0 C0.79921875 0.01804687 1.5984375 0.03609375 2.421875 0.0546875 C3.02515625 0.07789063 3.6284375 0.10109375 4.25 0.125 C4.25 0.455 4.25 0.785 4.25 1.125 C0.1303623 2.41743536 -3.41831683 3.38752625 -7.75 3.125 C-8.08 4.445 -8.41 5.765 -8.75 7.125 C-8.75 5.475 -8.75 3.825 -8.75 2.125 C-5.68753253 0.34090198 -3.52920727 -0.10380021 0 0 Z " fill="#1D3C4C" transform="translate(141.75,495.875)"/>
<path d="M0 0 C0 0.66 0 1.32 0 2 C-0.66 2 -1.32 2 -2 2 C-2.33 2.99 -2.66 3.98 -3 5 C-6.0625 6.1875 -6.0625 6.1875 -9 7 C-3.34042553 0 -3.34042553 0 0 0 Z " fill="#294554" transform="translate(171,546)"/>
<path d="M0 0 C0.33 0 0.66 0 1 0 C1.4726477 8.19256018 1.4726477 8.19256018 -0.5 11.5625 C-0.995 12.036875 -1.49 12.51125 -2 13 C-1.85769192 11.58297487 -1.71099254 10.1663904 -1.5625 8.75 C-1.48128906 7.96109375 -1.40007813 7.1721875 -1.31640625 6.359375 C-1.02365007 4.17635361 -0.57935581 2.1226818 0 0 Z " fill="#0A4431" transform="translate(785,531)"/>
<path d="M0 0 C1.65 0 3.3 0 5 0 C3.68 0.33 2.36 0.66 1 1 C1 1.66 1 2.32 1 3 C1.66 3 2.32 3 3 3 C3.33 5.31 3.66 7.62 4 10 C1.2027092 7.93243723 0.97307727 6.85559629 0.3125 3.3125 C0.209375 2.219375 0.10625 1.12625 0 0 Z " fill="#26424F" transform="translate(544,524)"/>
<path d="M0 0 C3.3 0 6.6 0 10 0 C9.67 1.32 9.34 2.64 9 4 C4.80884715 3.41789544 3.62457917 2.71843438 0 0 Z " fill="#B6C7CF" transform="translate(151,496)"/>
<path d="M0 0 C0.33 0.66 0.66 1.32 1 2 C1.66 2.33 2.32 2.66 3 3 C-0.13498292 4.85776765 -2.37471432 5.20140476 -6 5 C-6 4.34 -6 3.68 -6 3 C-4.02 2.01 -2.04 1.02 0 0 Z " fill="#35505F" transform="translate(465,477)"/>
<path d="M0 0 C3.36704285 -0.2295711 5.41370268 -0.33943529 8.375 1.375 C8.91125 1.91125 9.4475 2.4475 10 3 C10 3.66 10 4.32 10 5 C8.51800098 4.55090939 7.03944764 4.09043436 5.5625 3.625 C4.73878906 3.36976563 3.91507813 3.11453125 3.06640625 2.8515625 C1 2 1 2 0 0 Z " fill="#14523A" transform="translate(756,479)"/>
<path d="M0 0 C0.66 0 1.32 0 2 0 C1.34 2.64 0.68 5.28 0 8 C-1.32 8 -2.64 8 -4 8 C-3.67 6.68 -3.34 5.36 -3 4 C-2.34 4 -1.68 4 -1 4 C-0.67 2.68 -0.34 1.36 0 0 Z " fill="#284956" transform="translate(391,506)"/>
<path d="M0 0 C0.99 0.33 1.98 0.66 3 1 C1.515 6.445 1.515 6.445 0 12 C-1.15866723 7.36533108 -0.70010994 4.66739961 0 0 Z " fill="#59717D" transform="translate(827,493)"/>
<path d="M0 0 C-2.55068845 2.35448165 -3.71017358 2.98327924 -7.25 3.1875 C-8.1575 3.125625 -9.065 3.06375 -10 3 C-10 2.34 -10 1.68 -10 1 C-3.375 -1.125 -3.375 -1.125 0 0 Z " fill="#A0BDCC" transform="translate(916,555)"/>
<path d="M0 0 C0.66 1.32 1.32 2.64 2 4 C-1.465 5.485 -1.465 5.485 -5 7 C-3.70700306 4.11562221 -2.34058637 2.12780579 0 0 Z " fill="#59BA59" transform="translate(705,492)"/>
<path d="M0 0 C1.125 3.75 1.125 3.75 0 6 C-0.66 6 -1.32 6 -2 6 C-2 6.66 -2 7.32 -2 8 C-2.66 8 -3.32 8 -4 8 C-2.25 2.25 -2.25 2.25 0 0 Z " fill="#375261" transform="translate(403,480)"/>
<path d="M0 0 C0.66 0.33 1.32 0.66 2 1 C0.68 3.64 -0.64 6.28 -2 9 C-3 5 -3 5 -1.5625 2.25 C-1.046875 1.5075 -0.53125 0.765 0 0 Z " fill="#5EBE5C" transform="translate(780,541)"/>
<path d="M0 0 C1.12588014 0.95729916 2.2506715 1.91587895 3.375 2.875 C4.00148438 3.40867187 4.62796875 3.94234375 5.2734375 4.4921875 C6.55836651 5.61432007 7.79371975 6.79371975 9 8 C6.1875 7.8125 6.1875 7.8125 3 7 C1.14766715 4.59196729 0 3.07258075 0 0 Z " fill="#57B75B" transform="translate(720,536)"/>
<path d="M0 0 C0.66 0 1.32 0 2 0 C3.95216435 1.95216435 4.84826645 3.53199953 6 6 C4.02 5.34 2.04 4.68 0 4 C0 2.68 0 1.36 0 0 Z " fill="#0D2D3C" transform="translate(469,530)"/>
<path d="M0 0 C0.66 0 1.32 0 2 0 C3.125 3.3125 3.125 3.3125 4 7 C3.01 8.485 3.01 8.485 2 10 C0.68373308 6.38026598 0 3.90432869 0 0 Z " fill="#153747" transform="translate(815,509)"/>
<path d="M0 0 C0.66 0.33 1.32 0.66 2 1 C0.84826645 3.46800047 -0.04783565 5.04783565 -2 7 C-2.66 6.67 -3.32 6.34 -4 6 C-4 5.34 -4 4.68 -4 4 C-3.34 4 -2.68 4 -2 4 C-1.34 2.68 -0.68 1.36 0 0 Z " fill="#043934" transform="translate(708,484)"/>
<path d="M0 0 C1.43088528 2.86177057 0.59991697 4.93375773 0 8 C-0.99 8.33 -1.98 8.66 -3 9 C-2.25 2.25 -2.25 2.25 0 0 Z " fill="#0D2D3D" transform="translate(836,539)"/>
<path d="M0 0 C0.66 0.33 1.32 0.66 2 1 C2.40729228 3.32156597 2.74438677 5.6568787 3 8 C0.9375 6.25 0.9375 6.25 -1 4 C-0.75 1.75 -0.75 1.75 0 0 Z " fill="#5EC35A" transform="translate(699,541)"/>
<path d="M0 0 C0.66 0 1.32 0 2 0 C1.45276317 3.37462715 0.9451 5.08235 -1 8 C-1.66 8 -2.32 8 -3 8 C-1.125 2.25 -1.125 2.25 0 0 Z " fill="#11303F" transform="translate(114,533)"/>
<path d="M0 0 C0.33 0 0.66 0 1 0 C1 2.97 1 5.94 1 9 C1.66 9 2.32 9 3 9 C3 9.99 3 10.98 3 12 C2.01 12 1.02 12 0 12 C0 8.04 0 4.08 0 0 Z " fill="#082A3D" transform="translate(464,514)"/>
<path d="M0 0 C0.33 0 0.66 0 1 0 C1.36923077 5.41538462 1.36923077 5.41538462 -0.5 8.375 C-0.995 8.91125 -1.49 9.4475 -2 10 C-2.17942163 6.05272412 -2.09350689 3.4019487 0 0 Z " fill="#0D4B34" transform="translate(696,501)"/>
<path d="M0 0 C2.09749995 2.35968744 2.96905704 3.54616994 3.1875 6.75 C3.125625 7.4925 3.06375 8.235 3 9 C2.34 8.01 1.68 7.02 1 6 C0.01 6.495 0.01 6.495 -1 7 C-0.67 4.69 -0.34 2.38 0 0 Z " fill="#04273A" transform="translate(782,487)"/>
<path d="M0 0 C0.33 0.66 0.66 1.32 1 2 C-0.98 4.31 -2.96 6.62 -5 9 C-5 4.61031544 -2.87194899 3.23094261 0 0 Z " fill="#BCCBD1" transform="translate(535,486)"/>
<path d="M0 0 C0.99 0.33 1.98 0.66 3 1 C1.25 3.0625 1.25 3.0625 -1 5 C-3.25 4.75 -3.25 4.75 -5 4 C-2.6875 1.9375 -2.6875 1.9375 0 0 Z " fill="#C1D1D7" transform="translate(236,533)"/>
<path d="M0 0 C1.57432497 3.14864995 0.71895552 5.64487425 0 9 C-0.99 9.66 -1.98 10.32 -3 11 C-2.53199289 6.94393835 -2.12046792 3.53411321 0 0 Z " fill="#5D7581" transform="translate(893,517)"/>
<path d="M0 0 C0.99 0.33 1.98 0.66 3 1 C3.33 3.31 3.66 5.62 4 8 C1.10067643 5.60490662 0.49831724 3.68754757 0 0 Z " fill="#11313F" transform="translate(350,502)"/>
<path d="M0 0 C0.66 0 1.32 0 2 0 C1.67 1.98 1.34 3.96 1 6 C0.01 6.33 -0.98 6.66 -2 7 C-1.125 2.25 -1.125 2.25 0 0 Z " fill="#08293D" transform="translate(881,486)"/>
</svg>
