<?xml version="1.0" encoding="UTF-8"?>
<svg version="1.1" xmlns="http://www.w3.org/2000/svg" width="192" height="192">
<path d="M0 0 C21.17025368 16.38894469 36.07420937 38.39598446 39.87109375 65.22265625 C41.86698729 93.60087359 37.01626151 119.14327706 18.3046875 141.3125 C2.12082269 159.87540169 -20.24013244 173.68317751 -45.27734375 175.4440918 C-74.51062385 176.4416477 -99.09547407 170.93747007 -121.31640625 150.91015625 C-139.22929826 134.14977459 -151.61588833 111.59730701 -152.46484375 86.71875 C-152.84662879 57.0855552 -146.00461057 32.82134496 -124.96484375 11.03515625 C-91.74981745 -21.9053657 -38.50962312 -27.11871696 0 0 Z " fill="#0174C3" transform="translate(152.12890625,16.77734375)"/>
<path d="M0 0 C4.95 0 9.9 0 15 0 C15 34.32 15 68.64 15 104 C10.38 104 5.76 104 1 104 C0.67 100.7 0.34 97.4 0 94 C-0.763125 95.051875 -1.52625 96.10375 -2.3125 97.1875 C-7.21620115 102.81132509 -13.14423381 105.51051521 -20.5078125 106.4453125 C-30.19434722 106.75913112 -36.72833755 104.82423764 -44.25 98.8125 C-52.91967598 90.67713804 -55.96343547 79.65137646 -56.35400391 68.01049805 C-56.47591213 55.97418696 -54.27618825 46.09607232 -46 37 C-37.99873324 30.0647126 -30.62224908 27.48542398 -20.06640625 27.68359375 C-11.97003536 28.51901546 -7.22148131 31.81543224 -1 37 C-0.67 24.79 -0.34 12.58 0 0 Z " fill="#F6FAFD" transform="translate(109,41)"/>
<path d="M0 0 C5.75955451 4.35478511 10.22034632 9.67212262 11.5625 16.9375 C12.32595218 25.90099409 12.71737815 35.1405673 7.5625 42.9375 C2.66283548 48.40998542 -1.91552983 51.65347015 -9.3125 52.25 C-15.62285606 52.07174135 -21.008795 49.366205 -25.4375 44.9375 C-29.63192338 38.08802074 -30.65310475 32.09415209 -30.75 24.1875 C-30.77900391 23.4140625 -30.80800781 22.640625 -30.83789062 21.84375 C-30.91342472 14.91785484 -29.04787108 9.80890819 -24.3671875 4.66015625 C-23.68914062 4.11230469 -23.01109375 3.56445312 -22.3125 3 C-21.62929687 2.43410156 -20.94609375 1.86820312 -20.2421875 1.28515625 C-14.74457297 -2.82020525 -6.28023668 -1.94116406 0 0 Z " fill="#0375C3" transform="translate(98.4375,83.0625)"/>
</svg>
