<?xml version="1.0" encoding="UTF-8"?>
<svg version="1.1" xmlns="http://www.w3.org/2000/svg" width="933" height="933">
<path d="M0 0 C4.13345331 0.00570146 8.26684224 0.00231674 12.40029335 -0.0034523 C28.92079576 -0.02289025 45.40819332 -0.0186028 61.89819336 1.13037109 C61.89819336 1.79037109 61.89819336 2.45037109 61.89819336 3.13037109 C63.0415918 3.11876953 64.18499023 3.10716797 65.36303711 3.09521484 C66.8539209 3.08583822 68.34480645 3.07673788 69.83569336 3.06787109 C70.9678125 3.05530273 70.9678125 3.05530273 72.12280273 3.04248047 C74.04813649 3.03384669 75.97354917 3.07812777 77.89819336 3.13037109 C78.22819336 3.46037109 78.55819336 3.79037109 78.89819336 4.13037109 C81.0811211 4.36518802 83.2702251 4.54400432 85.46069336 4.69287109 C86.65823242 4.77666016 87.85577148 4.86044922 89.08959961 4.94677734 C90.01643555 5.00736328 90.94327148 5.06794922 91.89819336 5.13037109 C91.89819336 5.79037109 91.89819336 6.45037109 91.89819336 7.13037109 C95.52819336 7.13037109 99.15819336 7.13037109 102.89819336 7.13037109 C102.89819336 7.46037109 102.89819336 7.79037109 102.89819336 8.13037109 C106.19819336 8.46037109 109.49819336 8.79037109 112.89819336 9.13037109 C112.89819336 9.79037109 112.89819336 10.45037109 112.89819336 11.13037109 C116.19819336 11.13037109 119.49819336 11.13037109 122.89819336 11.13037109 C122.89819336 11.46037109 122.89819336 11.79037109 122.89819336 12.13037109 C124.01194336 12.25412109 125.12569336 12.37787109 126.27319336 12.50537109 C129.89819336 13.13037109 129.89819336 13.13037109 131.89819336 15.13037109 C132.92944336 15.27474609 133.96069336 15.41912109 135.02319336 15.56787109 C138.50006213 16.07257785 141.26111464 16.99904307 144.49975586 18.29833984 C149.50092309 20.03327245 154.72919609 21.01935186 159.89819336 22.13037109 C159.89819336 22.79037109 159.89819336 23.45037109 159.89819336 24.13037109 C162.20819336 24.13037109 164.51819336 24.13037109 166.89819336 24.13037109 C166.89819336 24.79037109 166.89819336 25.45037109 166.89819336 26.13037109 C168.87819336 26.13037109 170.85819336 26.13037109 172.89819336 26.13037109 C172.89819336 26.79037109 172.89819336 27.45037109 172.89819336 28.13037109 C175.20819336 28.13037109 177.51819336 28.13037109 179.89819336 28.13037109 C179.89819336 28.46037109 179.89819336 28.79037109 179.89819336 29.13037109 C180.78506836 29.21287109 181.67194336 29.29537109 182.58569336 29.38037109 C186.35495363 30.23378851 187.95169419 31.71273075 190.89819336 34.13037109 C193.58326665 34.91983718 193.58326665 34.91983718 195.89819336 35.13037109 C195.89819336 35.79037109 195.89819336 36.45037109 195.89819336 37.13037109 C196.97133789 37.06849609 196.97133789 37.06849609 198.06616211 37.00537109 C201.20638922 37.14397422 203.33030684 37.90140618 206.21069336 39.13037109 C207.09370117 39.50162109 207.97670898 39.87287109 208.88647461 40.25537109 C209.5503418 40.54412109 210.21420898 40.83287109 210.89819336 41.13037109 C210.89819336 41.79037109 210.89819336 42.45037109 210.89819336 43.13037109 C212.54819336 43.13037109 214.19819336 43.13037109 215.89819336 43.13037109 C215.89819336 43.79037109 215.89819336 44.45037109 215.89819336 45.13037109 C217.54819336 45.13037109 219.19819336 45.13037109 220.89819336 45.13037109 C220.89819336 45.79037109 220.89819336 46.45037109 220.89819336 47.13037109 C222.21819336 47.13037109 223.53819336 47.13037109 224.89819336 47.13037109 C224.89819336 47.79037109 224.89819336 48.45037109 224.89819336 49.13037109 C226.54819336 49.13037109 228.19819336 49.13037109 229.89819336 49.13037109 C230.22819336 49.79037109 230.55819336 50.45037109 230.89819336 51.13037109 C232.81589336 52.25101347 232.81589336 52.25101347 235.15209961 53.29443359 C236.00610352 53.69404297 236.86010742 54.09365234 237.73999023 54.50537109 C238.63782227 54.91787109 239.5356543 55.33037109 240.46069336 55.75537109 C241.36239258 56.17560547 242.2640918 56.59583984 243.19311523 57.02880859 C245.42560785 58.06827605 247.66064673 59.10183928 249.89819336 60.13037109 C249.89819336 60.79037109 249.89819336 61.45037109 249.89819336 62.13037109 C251.21819336 62.13037109 252.53819336 62.13037109 253.89819336 62.13037109 C253.89819336 62.79037109 253.89819336 63.45037109 253.89819336 64.13037109 C255.21819336 64.13037109 256.53819336 64.13037109 257.89819336 64.13037109 C257.89819336 64.79037109 257.89819336 65.45037109 257.89819336 66.13037109 C259.21819336 66.13037109 260.53819336 66.13037109 261.89819336 66.13037109 C261.89819336 66.79037109 261.89819336 67.45037109 261.89819336 68.13037109 C262.47569336 68.23349609 263.05319336 68.33662109 263.64819336 68.44287109 C266.25636878 69.23981358 267.73658436 70.47737597 269.89819336 72.13037109 C271.88269492 73.16078536 273.88018441 74.16723046 275.89819336 75.13037109 C275.89819336 75.79037109 275.89819336 76.45037109 275.89819336 77.13037109 C276.88819336 77.13037109 277.87819336 77.13037109 278.89819336 77.13037109 C278.89819336 77.79037109 278.89819336 78.45037109 278.89819336 79.13037109 C280.21819336 79.13037109 281.53819336 79.13037109 282.89819336 79.13037109 C282.89819336 79.79037109 282.89819336 80.45037109 282.89819336 81.13037109 C283.88819336 81.13037109 284.87819336 81.13037109 285.89819336 81.13037109 C285.89819336 81.79037109 285.89819336 82.45037109 285.89819336 83.13037109 C286.88819336 83.13037109 287.87819336 83.13037109 288.89819336 83.13037109 C288.89819336 83.79037109 288.89819336 84.45037109 288.89819336 85.13037109 C290.21819336 85.13037109 291.53819336 85.13037109 292.89819336 85.13037109 C292.89819336 85.79037109 292.89819336 86.45037109 292.89819336 87.13037109 C293.88819336 87.13037109 294.87819336 87.13037109 295.89819336 87.13037109 C295.89819336 88.12037109 295.89819336 89.11037109 295.89819336 90.13037109 C297.87819336 90.79037109 299.85819336 91.45037109 301.89819336 92.13037109 C301.89819336 92.79037109 301.89819336 93.45037109 301.89819336 94.13037109 C302.88819336 94.13037109 303.87819336 94.13037109 304.89819336 94.13037109 C304.89819336 94.79037109 304.89819336 95.45037109 304.89819336 96.13037109 C305.88819336 96.13037109 306.87819336 96.13037109 307.89819336 96.13037109 C307.89819336 96.79037109 307.89819336 97.45037109 307.89819336 98.13037109 C308.55819336 98.13037109 309.21819336 98.13037109 309.89819336 98.13037109 C309.89819336 98.79037109 309.89819336 99.45037109 309.89819336 100.13037109 C310.82631836 100.34693359 310.82631836 100.34693359 311.77319336 100.56787109 C313.89819336 101.13037109 313.89819336 101.13037109 315.89819336 102.13037109 C315.89819336 102.79037109 315.89819336 103.45037109 315.89819336 104.13037109 C316.88819336 104.13037109 317.87819336 104.13037109 318.89819336 104.13037109 C318.89819336 104.79037109 318.89819336 105.45037109 318.89819336 106.13037109 C319.88819336 106.13037109 320.87819336 106.13037109 321.89819336 106.13037109 C324.58569336 108.50537109 324.58569336 108.50537109 326.89819336 111.13037109 C326.89819336 111.79037109 326.89819336 112.45037109 326.89819336 113.13037109 C327.88819336 113.13037109 328.87819336 113.13037109 329.89819336 113.13037109 C329.89819336 113.79037109 329.89819336 114.45037109 329.89819336 115.13037109 C332.37319336 116.12037109 332.37319336 116.12037109 334.89819336 117.13037109 C334.89819336 117.79037109 334.89819336 118.45037109 334.89819336 119.13037109 C335.55819336 119.13037109 336.21819336 119.13037109 336.89819336 119.13037109 C336.89819336 119.79037109 336.89819336 120.45037109 336.89819336 121.13037109 C337.88819336 121.13037109 338.87819336 121.13037109 339.89819336 121.13037109 C339.89819336 121.79037109 339.89819336 122.45037109 339.89819336 123.13037109 C340.88819336 123.46037109 341.87819336 123.79037109 342.89819336 124.13037109 C343.55819336 125.12037109 344.21819336 126.11037109 344.89819336 127.13037109 C345.88819336 127.46037109 346.87819336 127.79037109 347.89819336 128.13037109 C347.89819336 128.79037109 347.89819336 129.45037109 347.89819336 130.13037109 C348.55819336 130.13037109 349.21819336 130.13037109 349.89819336 130.13037109 C349.89819336 130.79037109 349.89819336 131.45037109 349.89819336 132.13037109 C350.55819336 132.13037109 351.21819336 132.13037109 351.89819336 132.13037109 C351.89819336 132.79037109 351.89819336 133.45037109 351.89819336 134.13037109 C352.55819336 134.13037109 353.21819336 134.13037109 353.89819336 134.13037109 C353.89819336 134.79037109 353.89819336 135.45037109 353.89819336 136.13037109 C354.88819336 136.13037109 355.87819336 136.13037109 356.89819336 136.13037109 C356.89819336 136.79037109 356.89819336 137.45037109 356.89819336 138.13037109 C357.55819336 138.13037109 358.21819336 138.13037109 358.89819336 138.13037109 C358.89819336 138.79037109 358.89819336 139.45037109 358.89819336 140.13037109 C359.55819336 140.13037109 360.21819336 140.13037109 360.89819336 140.13037109 C360.89819336 140.79037109 360.89819336 141.45037109 360.89819336 142.13037109 C361.55819336 142.13037109 362.21819336 142.13037109 362.89819336 142.13037109 C364.48413086 143.77490234 364.48413086 143.77490234 366.27319336 145.94287109 C368.14058229 148.20101321 369.69342706 149.99134555 372.12475586 151.64208984 C373.00260742 152.37878906 373.00260742 152.37878906 373.89819336 153.13037109 C373.89819336 154.45037109 373.89819336 155.77037109 373.89819336 157.13037109 C374.55819336 157.13037109 375.21819336 157.13037109 375.89819336 157.13037109 C375.89819336 158.45037109 375.89819336 159.77037109 375.89819336 161.13037109 C376.55819336 161.13037109 377.21819336 161.13037109 377.89819336 161.13037109 C377.89819336 162.78037109 377.89819336 164.43037109 377.89819336 166.13037109 C378.55819336 166.13037109 379.21819336 166.13037109 379.89819336 166.13037109 C381.81302008 179.67313752 381.87129408 192.95765025 377.89819336 206.13037109 C377.23819336 206.13037109 376.57819336 206.13037109 375.89819336 206.13037109 C375.89819336 207.45037109 375.89819336 208.77037109 375.89819336 210.13037109 C375.23819336 210.13037109 374.57819336 210.13037109 373.89819336 210.13037109 C373.89819336 210.79037109 373.89819336 211.45037109 373.89819336 212.13037109 C373.23819336 212.13037109 372.57819336 212.13037109 371.89819336 212.13037109 C371.81569336 212.74912109 371.73319336 213.36787109 371.64819336 214.00537109 C370.89819336 216.13037109 370.89819336 216.13037109 368.83569336 217.38037109 C368.19631836 217.62787109 367.55694336 217.87537109 366.89819336 218.13037109 C366.89819336 219.12037109 366.89819336 220.11037109 366.89819336 221.13037109 C366.23819336 221.13037109 365.57819336 221.13037109 364.89819336 221.13037109 C364.89819336 221.79037109 364.89819336 222.45037109 364.89819336 223.13037109 C364.23819336 223.13037109 363.57819336 223.13037109 362.89819336 223.13037109 C362.89819336 223.79037109 362.89819336 224.45037109 362.89819336 225.13037109 C362.23819336 225.13037109 361.57819336 225.13037109 360.89819336 225.13037109 C360.89819336 225.79037109 360.89819336 226.45037109 360.89819336 227.13037109 C359.90819336 227.13037109 358.91819336 227.13037109 357.89819336 227.13037109 C357.89819336 227.79037109 357.89819336 228.45037109 357.89819336 229.13037109 C356.90819336 229.13037109 355.91819336 229.13037109 354.89819336 229.13037109 C354.89819336 229.79037109 354.89819336 230.45037109 354.89819336 231.13037109 C353.69262732 231.76069242 352.48356147 232.38432079 351.27319336 233.00537109 C350.60030273 233.35341797 349.92741211 233.70146484 349.23413086 234.06005859 C341.82710303 237.45391415 335.17827876 237.49702381 327.14819336 237.50537109 C325.92358398 237.52986328 324.69897461 237.55435547 323.43725586 237.57958984 C312.61715451 237.61434392 305.00856582 234.6758152 295.89819336 229.13037109 C295.89819336 228.47037109 295.89819336 227.81037109 295.89819336 227.13037109 C295.23819336 227.13037109 294.57819336 227.13037109 293.89819336 227.13037109 C293.89819336 226.47037109 293.89819336 225.81037109 293.89819336 225.13037109 C293.23819336 225.13037109 292.57819336 225.13037109 291.89819336 225.13037109 C291.89819336 224.47037109 291.89819336 223.81037109 291.89819336 223.13037109 C290.90819336 223.13037109 289.91819336 223.13037109 288.89819336 223.13037109 C288.89819336 222.47037109 288.89819336 221.81037109 288.89819336 221.13037109 C288.23819336 221.13037109 287.57819336 221.13037109 286.89819336 221.13037109 C286.89819336 220.47037109 286.89819336 219.81037109 286.89819336 219.13037109 C286.23819336 219.13037109 285.57819336 219.13037109 284.89819336 219.13037109 C283.20885414 217.48668969 281.54559412 215.8160835 279.89819336 214.13037109 C278.50600586 213.04755859 278.50600586 213.04755859 277.08569336 211.94287109 C276.36381836 211.34474609 275.64194336 210.74662109 274.89819336 210.13037109 C274.89819336 209.47037109 274.89819336 208.81037109 274.89819336 208.13037109 C274.23819336 208.13037109 273.57819336 208.13037109 272.89819336 208.13037109 C272.89819336 207.47037109 272.89819336 206.81037109 272.89819336 206.13037109 C271.90819336 205.80037109 270.91819336 205.47037109 269.89819336 205.13037109 C269.23819336 204.80037109 268.57819336 204.47037109 267.89819336 204.13037109 C267.89819336 203.47037109 267.89819336 202.81037109 267.89819336 202.13037109 C267.23819336 202.13037109 266.57819336 202.13037109 265.89819336 202.13037109 C265.89819336 201.47037109 265.89819336 200.81037109 265.89819336 200.13037109 C265.27944336 199.82099609 264.66069336 199.51162109 264.02319336 199.19287109 C262.64819336 198.50537109 261.27319336 197.81787109 259.89819336 197.13037109 C259.89819336 196.47037109 259.89819336 195.81037109 259.89819336 195.13037109 C259.23819336 195.13037109 258.57819336 195.13037109 257.89819336 195.13037109 C257.89819336 194.47037109 257.89819336 193.81037109 257.89819336 193.13037109 C256.97006836 192.91380859 256.97006836 192.91380859 256.02319336 192.69287109 C253.89819336 192.13037109 253.89819336 192.13037109 251.89819336 191.13037109 C251.89819336 190.47037109 251.89819336 189.81037109 251.89819336 189.13037109 C250.90819336 189.13037109 249.91819336 189.13037109 248.89819336 189.13037109 C248.89819336 188.47037109 248.89819336 187.81037109 248.89819336 187.13037109 C247.90819336 187.13037109 246.91819336 187.13037109 245.89819336 187.13037109 C245.89819336 186.47037109 245.89819336 185.81037109 245.89819336 185.13037109 C244.90819336 184.80037109 243.91819336 184.47037109 242.89819336 184.13037109 C242.23819336 183.80037109 241.57819336 183.47037109 240.89819336 183.13037109 C240.89819336 182.47037109 240.89819336 181.81037109 240.89819336 181.13037109 C239.57819336 180.80037109 238.25819336 180.47037109 236.89819336 180.13037109 C236.89819336 179.47037109 236.89819336 178.81037109 236.89819336 178.13037109 C234.91819336 177.47037109 232.93819336 176.81037109 230.89819336 176.13037109 C230.89819336 175.47037109 230.89819336 174.81037109 230.89819336 174.13037109 C229.90819336 174.13037109 228.91819336 174.13037109 227.89819336 174.13037109 C227.89819336 173.47037109 227.89819336 172.81037109 227.89819336 172.13037109 C226.90819336 172.13037109 225.91819336 172.13037109 224.89819336 172.13037109 C224.89819336 171.47037109 224.89819336 170.81037109 224.89819336 170.13037109 C223.57819336 170.13037109 222.25819336 170.13037109 220.89819336 170.13037109 C220.89819336 169.47037109 220.89819336 168.81037109 220.89819336 168.13037109 C219.90819336 168.13037109 218.91819336 168.13037109 217.89819336 168.13037109 C217.89819336 167.47037109 217.89819336 166.81037109 217.89819336 166.13037109 C216.57819336 166.13037109 215.25819336 166.13037109 213.89819336 166.13037109 C213.89819336 165.47037109 213.89819336 164.81037109 213.89819336 164.13037109 C211.56605188 162.92409102 209.40177197 161.9648973 206.89819336 161.13037109 C206.89819336 160.47037109 206.89819336 159.81037109 206.89819336 159.13037109 C205.57819336 159.13037109 204.25819336 159.13037109 202.89819336 159.13037109 C202.89819336 158.47037109 202.89819336 157.81037109 202.89819336 157.13037109 C202.00100586 156.91380859 202.00100586 156.91380859 201.08569336 156.69287109 C199.33668931 156.2431272 197.61142313 155.70144768 195.89819336 155.13037109 C195.89819336 154.47037109 195.89819336 153.81037109 195.89819336 153.13037109 C194.57819336 153.13037109 193.25819336 153.13037109 191.89819336 153.13037109 C191.89819336 152.47037109 191.89819336 151.81037109 191.89819336 151.13037109 C190.24819336 151.13037109 188.59819336 151.13037109 186.89819336 151.13037109 C186.89819336 150.47037109 186.89819336 149.81037109 186.89819336 149.13037109 C185.57819336 149.13037109 184.25819336 149.13037109 182.89819336 149.13037109 C182.89819336 148.47037109 182.89819336 147.81037109 182.89819336 147.13037109 C181.57819336 147.13037109 180.25819336 147.13037109 178.89819336 147.13037109 C178.89819336 146.47037109 178.89819336 145.81037109 178.89819336 145.13037109 C175.59819336 144.14037109 172.29819336 143.15037109 168.89819336 142.13037109 C168.89819336 141.47037109 168.89819336 140.81037109 168.89819336 140.13037109 C168.18276367 139.99759766 167.46733398 139.86482422 166.73022461 139.72802734 C163.95631014 139.14263574 161.29520061 138.39878665 158.58569336 137.56787109 C157.70268555 137.29845703 156.81967773 137.02904297 155.90991211 136.75146484 C155.24604492 136.54650391 154.58217773 136.34154297 153.89819336 136.13037109 C153.89819336 135.47037109 153.89819336 134.81037109 153.89819336 134.13037109 C152.24819336 134.13037109 150.59819336 134.13037109 148.89819336 134.13037109 C148.89819336 133.47037109 148.89819336 132.81037109 148.89819336 132.13037109 C146.91819336 132.13037109 144.93819336 132.13037109 142.89819336 132.13037109 C142.89819336 131.47037109 142.89819336 130.81037109 142.89819336 130.13037109 C140.91819336 130.13037109 138.93819336 130.13037109 136.89819336 130.13037109 C136.89819336 129.47037109 136.89819336 128.81037109 136.89819336 128.13037109 C134.91819336 128.13037109 132.93819336 128.13037109 130.89819336 128.13037109 C130.89819336 127.47037109 130.89819336 126.81037109 130.89819336 126.13037109 C129.88756836 126.00662109 128.87694336 125.88287109 127.83569336 125.75537109 C124.01881724 125.14951774 120.58319224 124.25843198 116.89819336 123.13037109 C116.89819336 122.47037109 116.89819336 121.81037109 116.89819336 121.13037109 C114.58819336 121.13037109 112.27819336 121.13037109 109.89819336 121.13037109 C109.89819336 120.47037109 109.89819336 119.81037109 109.89819336 119.13037109 C106.92819336 119.13037109 103.95819336 119.13037109 100.89819336 119.13037109 C100.89819336 118.47037109 100.89819336 117.81037109 100.89819336 117.13037109 C97.92819336 117.13037109 94.95819336 117.13037109 91.89819336 117.13037109 C91.89819336 116.47037109 91.89819336 115.81037109 91.89819336 115.13037109 C88.59819336 115.13037109 85.29819336 115.13037109 81.89819336 115.13037109 C81.89819336 114.47037109 81.89819336 113.81037109 81.89819336 113.13037109 C77.93819336 113.13037109 73.97819336 113.13037109 69.89819336 113.13037109 C69.89819336 112.80037109 69.89819336 112.47037109 69.89819336 112.13037109 C62.96819336 111.63537109 62.96819336 111.63537109 55.89819336 111.13037109 C55.89819336 110.47037109 55.89819336 109.81037109 55.89819336 109.13037109 C48.63819336 109.13037109 41.37819336 109.13037109 33.89819336 109.13037109 C33.56819336 108.47037109 33.23819336 107.81037109 32.89819336 107.13037109 C13.42819336 107.13037109 -6.04180664 107.13037109 -26.10180664 107.13037109 C-26.43180664 107.79037109 -26.76180664 108.45037109 -27.10180664 109.13037109 C-37.00180664 109.62537109 -37.00180664 109.62537109 -47.10180664 110.13037109 C-47.10180664 110.46037109 -47.10180664 110.79037109 -47.10180664 111.13037109 C-51.72180664 111.46037109 -56.34180664 111.79037109 -61.10180664 112.13037109 C-61.10180664 112.46037109 -61.10180664 112.79037109 -61.10180664 113.13037109 C-65.06180664 113.13037109 -69.02180664 113.13037109 -73.10180664 113.13037109 C-73.10180664 113.79037109 -73.10180664 114.45037109 -73.10180664 115.13037109 C-76.73180664 115.13037109 -80.36180664 115.13037109 -84.10180664 115.13037109 C-84.10180664 115.79037109 -84.10180664 116.45037109 -84.10180664 117.13037109 C-86.15258789 117.35823568 -88.20336914 117.58610026 -90.25415039 117.81396484 C-92.11320893 117.94923723 -92.11320893 117.94923723 -93.10180664 119.13037109 C-95.77239515 119.27152271 -98.42612902 119.17284217 -101.10180664 119.13037109 C-101.10180664 119.79037109 -101.10180664 120.45037109 -101.10180664 121.13037109 C-102.04282227 121.32373047 -102.98383789 121.51708984 -103.95336914 121.71630859 C-105.19860352 121.97669922 -106.44383789 122.23708984 -107.72680664 122.50537109 C-108.95657227 122.76060547 -110.18633789 123.01583984 -111.45336914 123.27880859 C-114.7600086 124.05059382 -117.90322377 124.99856485 -121.10180664 126.13037109 C-121.10180664 126.79037109 -121.10180664 127.45037109 -121.10180664 128.13037109 C-123.41180664 128.13037109 -125.72180664 128.13037109 -128.10180664 128.13037109 C-128.10180664 128.79037109 -128.10180664 129.45037109 -128.10180664 130.13037109 C-130.08180664 130.46037109 -132.06180664 130.79037109 -134.10180664 131.13037109 C-134.10180664 131.46037109 -134.10180664 131.79037109 -134.10180664 132.13037109 C-136.08180664 132.13037109 -138.06180664 132.13037109 -140.10180664 132.13037109 C-140.10180664 132.79037109 -140.10180664 133.45037109 -140.10180664 134.13037109 C-141.75180664 134.13037109 -143.40180664 134.13037109 -145.10180664 134.13037109 C-145.10180664 134.79037109 -145.10180664 135.45037109 -145.10180664 136.13037109 C-147.08180664 136.13037109 -149.06180664 136.13037109 -151.10180664 136.13037109 C-151.10180664 136.79037109 -151.10180664 137.45037109 -151.10180664 138.13037109 C-152.75180664 138.13037109 -154.40180664 138.13037109 -156.10180664 138.13037109 C-156.10180664 138.79037109 -156.10180664 139.45037109 -156.10180664 140.13037109 C-156.78887695 140.38431641 -157.47594727 140.63826172 -158.18383789 140.89990234 C-159.08489258 141.24408203 -159.98594727 141.58826172 -160.91430664 141.94287109 C-161.80762695 142.27931641 -162.70094727 142.61576172 -163.62133789 142.96240234 C-166.051194 144.10653932 -167.27750439 145.22121757 -169.10180664 147.13037109 C-171.78930664 147.81787109 -171.78930664 147.81787109 -174.10180664 148.13037109 C-174.10180664 148.46037109 -174.10180664 148.79037109 -174.10180664 149.13037109 C-175.75180664 149.13037109 -177.40180664 149.13037109 -179.10180664 149.13037109 C-179.10180664 149.79037109 -179.10180664 150.45037109 -179.10180664 151.13037109 C-180.42180664 151.13037109 -181.74180664 151.13037109 -183.10180664 151.13037109 C-183.10180664 151.79037109 -183.10180664 152.45037109 -183.10180664 153.13037109 C-184.42180664 153.13037109 -185.74180664 153.13037109 -187.10180664 153.13037109 C-187.10180664 153.79037109 -187.10180664 154.45037109 -187.10180664 155.13037109 C-188.42180664 155.13037109 -189.74180664 155.13037109 -191.10180664 155.13037109 C-191.10180664 155.79037109 -191.10180664 156.45037109 -191.10180664 157.13037109 C-191.77727539 157.44490234 -192.45274414 157.75943359 -193.14868164 158.08349609 C-197.87831386 160.352626 -201.44151537 162.32929939 -205.10180664 166.13037109 C-206.42180664 166.13037109 -207.74180664 166.13037109 -209.10180664 166.13037109 C-209.10180664 166.79037109 -209.10180664 167.45037109 -209.10180664 168.13037109 C-210.42180664 168.13037109 -211.74180664 168.13037109 -213.10180664 168.13037109 C-213.10180664 168.79037109 -213.10180664 169.45037109 -213.10180664 170.13037109 C-214.09180664 170.13037109 -215.08180664 170.13037109 -216.10180664 170.13037109 C-216.10180664 170.79037109 -216.10180664 171.45037109 -216.10180664 172.13037109 C-217.09180664 172.13037109 -218.08180664 172.13037109 -219.10180664 172.13037109 C-219.10180664 172.79037109 -219.10180664 173.45037109 -219.10180664 174.13037109 C-220.09180664 174.13037109 -221.08180664 174.13037109 -222.10180664 174.13037109 C-222.10180664 174.79037109 -222.10180664 175.45037109 -222.10180664 176.13037109 C-223.05893555 176.63697266 -223.05893555 176.63697266 -224.03540039 177.15380859 C-224.86168945 177.59982422 -225.68797852 178.04583984 -226.53930664 178.50537109 C-227.36301758 178.94623047 -228.18672852 179.38708984 -229.03540039 179.84130859 C-231.23647242 180.96455669 -231.23647242 180.96455669 -232.10180664 183.13037109 C-233.09180664 183.13037109 -234.08180664 183.13037109 -235.10180664 183.13037109 C-235.10180664 183.79037109 -235.10180664 184.45037109 -235.10180664 185.13037109 C-235.76180664 185.79037109 -236.42180664 186.45037109 -237.10180664 187.13037109 C-238.42180664 187.13037109 -239.74180664 187.13037109 -241.10180664 187.13037109 C-241.10180664 187.79037109 -241.10180664 188.45037109 -241.10180664 189.13037109 C-241.76180664 189.13037109 -242.42180664 189.13037109 -243.10180664 189.13037109 C-243.10180664 189.79037109 -243.10180664 190.45037109 -243.10180664 191.13037109 C-244.09180664 191.13037109 -245.08180664 191.13037109 -246.10180664 191.13037109 C-246.10180664 191.79037109 -246.10180664 192.45037109 -246.10180664 193.13037109 C-247.09180664 193.13037109 -248.08180664 193.13037109 -249.10180664 193.13037109 C-249.10180664 193.79037109 -249.10180664 194.45037109 -249.10180664 195.13037109 C-250.75180664 195.79037109 -252.40180664 196.45037109 -254.10180664 197.13037109 C-254.10180664 197.79037109 -254.10180664 198.45037109 -254.10180664 199.13037109 C-255.47680664 200.75537109 -255.47680664 200.75537109 -257.10180664 202.13037109 C-257.76180664 202.13037109 -258.42180664 202.13037109 -259.10180664 202.13037109 C-259.10180664 202.79037109 -259.10180664 203.45037109 -259.10180664 204.13037109 C-260.09180664 204.13037109 -261.08180664 204.13037109 -262.10180664 204.13037109 C-262.10180664 204.79037109 -262.10180664 205.45037109 -262.10180664 206.13037109 C-262.76180664 206.13037109 -263.42180664 206.13037109 -264.10180664 206.13037109 C-264.10180664 206.79037109 -264.10180664 207.45037109 -264.10180664 208.13037109 C-265.09180664 208.13037109 -266.08180664 208.13037109 -267.10180664 208.13037109 C-267.10180664 208.79037109 -267.10180664 209.45037109 -267.10180664 210.13037109 C-267.76180664 210.13037109 -268.42180664 210.13037109 -269.10180664 210.13037109 C-269.10180664 210.79037109 -269.10180664 211.45037109 -269.10180664 212.13037109 C-269.76180664 212.13037109 -270.42180664 212.13037109 -271.10180664 212.13037109 C-271.10180664 212.79037109 -271.10180664 213.45037109 -271.10180664 214.13037109 C-271.76180664 214.13037109 -272.42180664 214.13037109 -273.10180664 214.13037109 C-273.10180664 214.79037109 -273.10180664 215.45037109 -273.10180664 216.13037109 C-275.47680664 218.75537109 -275.47680664 218.75537109 -278.10180664 221.13037109 C-278.76180664 221.13037109 -279.42180664 221.13037109 -280.10180664 221.13037109 C-280.10180664 221.79037109 -280.10180664 222.45037109 -280.10180664 223.13037109 C-280.76180664 223.13037109 -281.42180664 223.13037109 -282.10180664 223.13037109 C-282.10180664 223.79037109 -282.10180664 224.45037109 -282.10180664 225.13037109 C-282.76180664 225.13037109 -283.42180664 225.13037109 -284.10180664 225.13037109 C-284.10180664 225.79037109 -284.10180664 226.45037109 -284.10180664 227.13037109 C-285.09180664 227.13037109 -286.08180664 227.13037109 -287.10180664 227.13037109 C-287.10180664 227.79037109 -287.10180664 228.45037109 -287.10180664 229.13037109 C-288.09180664 229.13037109 -289.08180664 229.13037109 -290.10180664 229.13037109 C-290.10180664 229.79037109 -290.10180664 230.45037109 -290.10180664 231.13037109 C-291.09180664 231.13037109 -292.08180664 231.13037109 -293.10180664 231.13037109 C-293.10180664 231.79037109 -293.10180664 232.45037109 -293.10180664 233.13037109 C-294.42180664 233.13037109 -295.74180664 233.13037109 -297.10180664 233.13037109 C-297.10180664 233.79037109 -297.10180664 234.45037109 -297.10180664 235.13037109 C-302.38094117 237.21423999 -307.49719133 237.70947113 -313.10180664 238.13037109 C-313.10180664 238.79037109 -313.10180664 239.45037109 -313.10180664 240.13037109 C-316.73180664 240.13037109 -320.36180664 240.13037109 -324.10180664 240.13037109 C-324.43180664 239.47037109 -324.76180664 238.81037109 -325.10180664 238.13037109 C-327.02649752 237.73668592 -327.02649752 237.73668592 -329.28930664 237.63037109 C-333.14757484 237.29138587 -336.46572888 236.52886254 -340.10180664 235.13037109 C-340.10180664 234.47037109 -340.10180664 233.81037109 -340.10180664 233.13037109 C-341.42180664 233.13037109 -342.74180664 233.13037109 -344.10180664 233.13037109 C-344.10180664 232.47037109 -344.10180664 231.81037109 -344.10180664 231.13037109 C-345.09180664 231.13037109 -346.08180664 231.13037109 -347.10180664 231.13037109 C-347.10180664 230.47037109 -347.10180664 229.81037109 -347.10180664 229.13037109 C-348.09180664 229.13037109 -349.08180664 229.13037109 -350.10180664 229.13037109 C-350.10180664 228.47037109 -350.10180664 227.81037109 -350.10180664 227.13037109 C-351.09180664 227.13037109 -352.08180664 227.13037109 -353.10180664 227.13037109 C-353.10180664 226.47037109 -353.10180664 225.81037109 -353.10180664 225.13037109 C-353.76180664 225.13037109 -354.42180664 225.13037109 -355.10180664 225.13037109 C-355.10180664 224.47037109 -355.10180664 223.81037109 -355.10180664 223.13037109 C-355.76180664 223.13037109 -356.42180664 223.13037109 -357.10180664 223.13037109 C-357.10180664 222.47037109 -357.10180664 221.81037109 -357.10180664 221.13037109 C-357.76180664 221.13037109 -358.42180664 221.13037109 -359.10180664 221.13037109 C-359.10180664 220.14037109 -359.10180664 219.15037109 -359.10180664 218.13037109 C-359.76180664 218.13037109 -360.42180664 218.13037109 -361.10180664 218.13037109 C-361.10180664 217.47037109 -361.10180664 216.81037109 -361.10180664 216.13037109 C-362.09180664 215.80037109 -363.08180664 215.47037109 -364.10180664 215.13037109 C-364.76180664 214.47037109 -365.42180664 213.81037109 -366.10180664 213.13037109 C-366.10180664 212.14037109 -366.10180664 211.15037109 -366.10180664 210.13037109 C-366.76180664 210.13037109 -367.42180664 210.13037109 -368.10180664 210.13037109 C-368.10180664 208.81037109 -368.10180664 207.49037109 -368.10180664 206.13037109 C-368.76180664 206.13037109 -369.42180664 206.13037109 -370.10180664 206.13037109 C-372.54881037 198.29995916 -373.2711628 190.73679713 -373.22680664 182.56787109 C-373.23067383 181.85179687 -373.23454102 181.13572266 -373.23852539 180.39794922 C-373.22625194 173.65368673 -372.43307887 167.50251518 -370.10180664 161.13037109 C-369.44180664 161.13037109 -368.78180664 161.13037109 -368.10180664 161.13037109 C-368.10180664 159.81037109 -368.10180664 158.49037109 -368.10180664 157.13037109 C-367.44180664 157.13037109 -366.78180664 157.13037109 -366.10180664 157.13037109 C-366.10180664 156.47037109 -366.10180664 155.81037109 -366.10180664 155.13037109 C-365.44180664 155.13037109 -364.78180664 155.13037109 -364.10180664 155.13037109 C-363.60680664 153.15037109 -363.60680664 153.15037109 -363.10180664 151.13037109 C-362.44180664 151.13037109 -361.78180664 151.13037109 -361.10180664 151.13037109 C-361.10180664 150.47037109 -361.10180664 149.81037109 -361.10180664 149.13037109 C-360.44180664 149.13037109 -359.78180664 149.13037109 -359.10180664 149.13037109 C-359.10180664 148.47037109 -359.10180664 147.81037109 -359.10180664 147.13037109 C-358.44180664 147.13037109 -357.78180664 147.13037109 -357.10180664 147.13037109 C-357.10180664 146.47037109 -357.10180664 145.81037109 -357.10180664 145.13037109 C-356.44180664 145.13037109 -355.78180664 145.13037109 -355.10180664 145.13037109 C-355.10180664 144.14037109 -355.10180664 143.15037109 -355.10180664 142.13037109 C-354.11180664 141.14037109 -354.11180664 141.14037109 -353.10180664 140.13037109 C-352.11180664 140.13037109 -351.12180664 140.13037109 -350.10180664 140.13037109 C-350.10180664 139.47037109 -350.10180664 138.81037109 -350.10180664 138.13037109 C-349.44180664 138.13037109 -348.78180664 138.13037109 -348.10180664 138.13037109 C-348.10180664 137.47037109 -348.10180664 136.81037109 -348.10180664 136.13037109 C-347.44180664 136.13037109 -346.78180664 136.13037109 -346.10180664 136.13037109 C-346.10180664 135.47037109 -346.10180664 134.81037109 -346.10180664 134.13037109 C-345.11180664 134.13037109 -344.12180664 134.13037109 -343.10180664 134.13037109 C-343.10180664 133.47037109 -343.10180664 132.81037109 -343.10180664 132.13037109 C-342.44180664 132.13037109 -341.78180664 132.13037109 -341.10180664 132.13037109 C-341.10180664 131.47037109 -341.10180664 130.81037109 -341.10180664 130.13037109 C-340.31805664 129.90349609 -339.53430664 129.67662109 -338.72680664 129.44287109 C-335.88305664 128.34912109 -335.88305664 128.34912109 -334.78930664 125.50537109 C-334.44899414 124.32974609 -334.44899414 124.32974609 -334.10180664 123.13037109 C-333.11180664 123.13037109 -332.12180664 123.13037109 -331.10180664 123.13037109 C-331.10180664 122.47037109 -331.10180664 121.81037109 -331.10180664 121.13037109 C-330.44180664 121.13037109 -329.78180664 121.13037109 -329.10180664 121.13037109 C-329.10180664 120.47037109 -329.10180664 119.81037109 -329.10180664 119.13037109 C-328.11180664 119.13037109 -327.12180664 119.13037109 -326.10180664 119.13037109 C-326.10180664 118.47037109 -326.10180664 117.81037109 -326.10180664 117.13037109 C-325.11180664 117.13037109 -324.12180664 117.13037109 -323.10180664 117.13037109 C-323.10180664 116.47037109 -323.10180664 115.81037109 -323.10180664 115.13037109 C-322.44180664 115.13037109 -321.78180664 115.13037109 -321.10180664 115.13037109 C-321.10180664 114.47037109 -321.10180664 113.81037109 -321.10180664 113.13037109 C-315.69004193 109.13037109 -315.69004193 109.13037109 -313.10180664 109.13037109 C-313.10180664 108.14037109 -313.10180664 107.15037109 -313.10180664 106.13037109 C-312.11180664 106.13037109 -311.12180664 106.13037109 -310.10180664 106.13037109 C-310.10180664 105.47037109 -310.10180664 104.81037109 -310.10180664 104.13037109 C-305.74886546 100.13037109 -305.74886546 100.13037109 -302.10180664 100.13037109 C-302.10180664 99.47037109 -302.10180664 98.81037109 -302.10180664 98.13037109 C-301.11180664 98.13037109 -300.12180664 98.13037109 -299.10180664 98.13037109 C-299.10180664 97.47037109 -299.10180664 96.81037109 -299.10180664 96.13037109 C-298.11180664 96.13037109 -297.12180664 96.13037109 -296.10180664 96.13037109 C-296.10180664 95.47037109 -296.10180664 94.81037109 -296.10180664 94.13037109 C-295.11180664 94.13037109 -294.12180664 94.13037109 -293.10180664 94.13037109 C-293.10180664 93.47037109 -293.10180664 92.81037109 -293.10180664 92.13037109 C-292.11180664 92.13037109 -291.12180664 92.13037109 -290.10180664 92.13037109 C-290.10180664 91.47037109 -290.10180664 90.81037109 -290.10180664 90.13037109 C-286.95978988 86.1155719 -282.01226347 84.07468971 -277.10180664 83.13037109 C-277.10180664 82.47037109 -277.10180664 81.81037109 -277.10180664 81.13037109 C-276.11180664 81.13037109 -275.12180664 81.13037109 -274.10180664 81.13037109 C-274.10180664 80.47037109 -274.10180664 79.81037109 -274.10180664 79.13037109 C-272.78180664 79.13037109 -271.46180664 79.13037109 -270.10180664 79.13037109 C-270.10180664 78.47037109 -270.10180664 77.81037109 -270.10180664 77.13037109 C-269.11180664 77.13037109 -268.12180664 77.13037109 -267.10180664 77.13037109 C-267.10180664 76.47037109 -267.10180664 75.81037109 -267.10180664 75.13037109 C-266.11180664 75.13037109 -265.12180664 75.13037109 -264.10180664 75.13037109 C-264.10180664 74.47037109 -264.10180664 73.81037109 -264.10180664 73.13037109 C-256.67323521 68.70179967 -256.67323521 68.70179967 -253.10180664 68.13037109 C-253.10180664 67.47037109 -253.10180664 66.81037109 -253.10180664 66.13037109 C-251.78180664 66.13037109 -250.46180664 66.13037109 -249.10180664 66.13037109 C-249.10180664 65.47037109 -249.10180664 64.81037109 -249.10180664 64.13037109 C-247.78180664 64.13037109 -246.46180664 64.13037109 -245.10180664 64.13037109 C-245.10180664 63.47037109 -245.10180664 62.81037109 -245.10180664 62.13037109 C-243.78180664 62.13037109 -242.46180664 62.13037109 -241.10180664 62.13037109 C-241.10180664 61.47037109 -241.10180664 60.81037109 -241.10180664 60.13037109 C-240.53147705 59.86820801 -239.96114746 59.60604492 -239.37353516 59.3359375 C-236.80074259 58.14889863 -234.23252124 56.95228026 -231.66430664 55.75537109 C-230.76647461 55.34287109 -229.86864258 54.93037109 -228.94360352 54.50537109 C-228.08959961 54.10576172 -227.2355957 53.70615234 -226.35571289 53.29443359 C-225.56495361 52.92785645 -224.77419434 52.5612793 -223.95947266 52.18359375 C-221.93677733 51.26490012 -221.93677733 51.26490012 -221.10180664 49.13037109 C-219.03540039 48.27880859 -219.03540039 48.27880859 -216.53930664 47.50537109 C-215.71301758 47.24498047 -214.88672852 46.98458984 -214.03540039 46.71630859 C-213.39731445 46.52294922 -212.75922852 46.32958984 -212.10180664 46.13037109 C-212.10180664 45.80037109 -212.10180664 45.47037109 -212.10180664 45.13037109 C-210.45180664 45.13037109 -208.80180664 45.13037109 -207.10180664 45.13037109 C-207.10180664 44.47037109 -207.10180664 43.81037109 -207.10180664 43.13037109 C-205.45180664 43.13037109 -203.80180664 43.13037109 -202.10180664 43.13037109 C-202.10180664 42.47037109 -202.10180664 41.81037109 -202.10180664 41.13037109 C-201.21879883 40.82744141 -200.33579102 40.52451172 -199.42602539 40.21240234 C-191.7880485 37.54608388 -184.40602476 34.63341448 -177.10180664 31.13037109 C-177.10180664 30.80037109 -177.10180664 30.47037109 -177.10180664 30.13037109 C-174.13180664 29.63537109 -174.13180664 29.63537109 -171.10180664 29.13037109 C-171.10180664 28.80037109 -171.10180664 28.47037109 -171.10180664 28.13037109 C-168.13180664 27.63537109 -168.13180664 27.63537109 -165.10180664 27.13037109 C-165.10180664 26.80037109 -165.10180664 26.47037109 -165.10180664 26.13037109 C-162.79180664 26.13037109 -160.48180664 26.13037109 -158.10180664 26.13037109 C-158.10180664 25.47037109 -158.10180664 24.81037109 -158.10180664 24.13037109 C-156.12180664 24.13037109 -154.14180664 24.13037109 -152.10180664 24.13037109 C-152.10180664 23.47037109 -152.10180664 22.81037109 -152.10180664 22.13037109 C-149.79180664 22.13037109 -147.48180664 22.13037109 -145.10180664 22.13037109 C-145.10180664 21.47037109 -145.10180664 20.81037109 -145.10180664 20.13037109 C-142.79180664 20.13037109 -140.48180664 20.13037109 -138.10180664 20.13037109 C-138.10180664 19.47037109 -138.10180664 18.81037109 -138.10180664 18.13037109 C-136.40024414 17.91380859 -136.40024414 17.91380859 -134.66430664 17.69287109 C-131.29403463 17.51865632 -131.29403463 17.51865632 -130.10180664 16.13037109 C-128.94680664 15.98599609 -127.79180664 15.84162109 -126.60180664 15.69287109 C-124.86930664 15.41443359 -124.86930664 15.41443359 -123.10180664 15.13037109 C-122.77180664 14.47037109 -122.44180664 13.81037109 -122.10180664 13.13037109 C-119.45320237 12.53681496 -116.80983342 12.38827841 -114.10180664 12.13037109 C-114.10180664 11.80037109 -114.10180664 11.47037109 -114.10180664 11.13037109 C-110.80180664 11.13037109 -107.50180664 11.13037109 -104.10180664 11.13037109 C-104.10180664 10.47037109 -104.10180664 9.81037109 -104.10180664 9.13037109 C-100.80180664 9.13037109 -97.50180664 9.13037109 -94.10180664 9.13037109 C-94.10180664 8.47037109 -94.10180664 7.81037109 -94.10180664 7.13037109 C-90.14180664 7.13037109 -86.18180664 7.13037109 -82.10180664 7.13037109 C-82.10180664 6.47037109 -82.10180664 5.81037109 -82.10180664 5.13037109 C-77.81180664 5.13037109 -73.52180664 5.13037109 -69.10180664 5.13037109 C-69.10180664 4.47037109 -69.10180664 3.81037109 -69.10180664 3.13037109 C-63.82180664 3.13037109 -58.54180664 3.13037109 -53.10180664 3.13037109 C-53.10180664 2.47037109 -53.10180664 1.81037109 -53.10180664 1.13037109 C-35.40537748 -0.02234534 -17.72484072 -0.02477305 0 0 Z " fill="#8CA4B5" transform="translate(464.101806640625,265.86962890625)"/>
<path d="M0 0 C11.55 0 23.1 0 35 0 C35 0.66 35 1.32 35 2 C42.59 2 50.18 2 58 2 C58 2.66 58 3.32 58 4 C62.29 4 66.58 4 71 4 C71 4.66 71 5.32 71 6 C74.96 6 78.92 6 83 6 C83 6.33 83 6.66 83 7 C83.63808594 7.04898437 84.27617188 7.09796875 84.93359375 7.1484375 C85.75988281 7.22320312 86.58617187 7.29796875 87.4375 7.375 C88.26121094 7.44460938 89.08492187 7.51421875 89.93359375 7.5859375 C90.61550781 7.72257812 91.29742188 7.85921875 92 8 C92.33 8.66 92.66 9.32 93 10 C95.32716 10.37400786 97.66117862 10.70764733 100 11 C100.33 11.33 100.66 11.66 101 12 C103.32817964 12.36760731 105.6618385 12.70241581 108 13 C108 13.66 108 14.32 108 15 C109.2684375 14.938125 109.2684375 14.938125 110.5625 14.875 C114.42213269 15.01535028 117.33688013 15.82780164 121 17 C121 17.66 121 18.32 121 19 C122.98 19 124.96 19 127 19 C127 19.66 127 20.32 127 21 C128.98 21 130.96 21 133 21 C133 21.66 133 22.32 133 23 C134.65 23 136.3 23 138 23 C138 23.66 138 24.32 138 25 C138.9075 24.95875 139.815 24.9175 140.75 24.875 C143.89640926 24.99601574 145.42156198 25.28104132 148 27 C148.33 27.66 148.66 28.32 149 29 C150.71322532 29.83586755 150.71322532 29.83586755 152.75 30.5 C153.46671875 30.75394531 154.1834375 31.00789063 154.921875 31.26953125 C155.95054687 31.63111328 155.95054687 31.63111328 157 32 C158.66905395 32.66066719 160.3369416 33.32438252 162 34 C162 34.66 162 35.32 162 36 C163.32 36 164.64 36 166 36 C166 36.66 166 37.32 166 38 C167.32 38 168.64 38 170 38 C170 38.66 170 39.32 170 40 C171.32 40 172.64 40 174 40 C174 40.66 174 41.32 174 42 C175.32 42 176.64 42 178 42 C178 42.66 178 43.32 178 44 C178.58652344 44.1134375 179.17304687 44.226875 179.77734375 44.34375 C182.17304987 45.05109381 183.59318412 45.98446384 185.5625 47.5 C187.82900642 49.23647708 189.22472293 50.07490764 192 51 C192 51.66 192 52.32 192 53 C192.99 53 193.98 53 195 53 C195 53.66 195 54.32 195 55 C195.99 55 196.98 55 198 55 C198 55.66 198 56.32 198 57 C198.99 57 199.98 57 201 57 C201 57.66 201 58.32 201 59 C201.61875 59.144375 202.2375 59.28875 202.875 59.4375 C205 60 205 60 207 61 C207 61.66 207 62.32 207 63 C207.61875 63.0825 208.2375 63.165 208.875 63.25 C211 64 211 64 212.25 66.0625 C212.4975 66.701875 212.745 67.34125 213 68 C213.99 68 214.98 68 216 68 C216 68.66 216 69.32 216 70 C217.65 70.66 219.3 71.32 221 72 C221 72.66 221 73.32 221 74 C221.99 74 222.98 74 224 74 C224 74.66 224 75.32 224 76 C224.66 76 225.32 76 226 76 C226 76.66 226 77.32 226 78 C226.99 78 227.98 78 229 78 C229 78.66 229 79.32 229 80 C229.66 80 230.32 80 231 80 C231 80.66 231 81.32 231 82 C231.99 82 232.98 82 234 82 C235.71140469 83.96185416 237.37873325 85.96302383 239 88 C239.66 88.33 240.32 88.66 241 89 C241 89.66 241 90.32 241 91 C241.66 91 242.32 91 243 91 C243 91.66 243 92.32 243 93 C243.66 93 244.32 93 245 93 C245 93.66 245 94.32 245 95 C245.66 95 246.32 95 247 95 C247 95.66 247 96.32 247 97 C247.66 97 248.32 97 249 97 C249 97.66 249 98.32 249 99 C249.66 99 250.32 99 251 99 C251 99.66 251 100.32 251 101 C251.66 101 252.32 101 253 101 C253.33 102.32 253.66 103.64 254 105 C254.66 105 255.32 105 256 105 C256 105.99 256 106.98 256 108 C256.66 108 257.32 108 258 108 C258 109.32 258 110.64 258 112 C258.66 112 259.32 112 260 112 C260 113.98 260 115.96 260 118 C260.66 118 261.32 118 262 118 C262 127.9 262 137.8 262 148 C261.34 148 260.68 148 260 148 C260 149.98 260 151.96 260 154 C259.34 154 258.68 154 258 154 C258 155.32 258 156.64 258 158 C257.34 158 256.68 158 256 158 C256 159.65 256 161.3 256 163 C254.02 163.99 254.02 163.99 252 165 C252 165.66 252 166.32 252 167 C251.34 167 250.68 167 250 167 C250 167.66 250 168.32 250 169 C249.34 169 248.68 169 248 169 C248 169.66 248 170.32 248 171 C247.34 171 246.68 171 246 171 C245.67 172.32 245.34 173.64 245 175 C243.68 175.33 242.36 175.66 241 176 C241 176.66 241 177.32 241 178 C240.34 178 239.68 178 239 178 C239 178.66 239 179.32 239 180 C238.01 180 237.02 180 236 180 C236 180.66 236 181.32 236 182 C235.01 182 234.02 182 233 182 C233 182.66 233 183.32 233 184 C231.35 184 229.7 184 228 184 C228 184.66 228 185.32 228 186 C225.69 186 223.38 186 221 186 C221 186.66 221 187.32 221 188 C212.42 188 203.84 188 195 188 C195 187.34 195 186.68 195 186 C193.02 186 191.04 186 189 186 C189 185.34 189 184.68 189 184 C187.35 184 185.7 184 184 184 C184 183.34 184 182.68 184 182 C183.41734375 181.89558594 182.8346875 181.79117188 182.234375 181.68359375 C179.66354577 180.89706383 178.2659942 179.82434109 176.25 178.0625 C175.63640625 177.53785156 175.0228125 177.01320313 174.390625 176.47265625 C173 175 173 175 173 173 C172.34 173 171.68 173 171 173 C171 172.34 171 171.68 171 171 C170.34 171 169.68 171 169 171 C169 170.34 169 169.68 169 169 C168.01 169 167.02 169 166 169 C166 168.34 166 167.68 166 167 C165.34 167 164.68 167 164 167 C164 166.34 164 165.68 164 165 C163.34 165 162.68 165 162 165 C162 164.34 162 163.68 162 163 C161.01 163 160.02 163 159 163 C159 162.34 159 161.68 159 161 C158.34 161 157.68 161 157 161 C155.31183067 159.35511706 153.64646685 157.68662458 152 156 C151.01 155.34 150.02 154.68 149 154 C149 153.34 149 152.68 149 152 C148.01 152 147.02 152 146 152 C146 151.34 146 150.68 146 150 C145.01 150 144.02 150 143 150 C143 149.34 143 148.68 143 148 C142.01 148 141.02 148 140 148 C140 147.34 140 146.68 140 146 C139.01 146 138.02 146 137 146 C137 145.34 137 144.68 137 144 C136.401875 143.87625 135.80375 143.7525 135.1875 143.625 C133 143 133 143 130 141 C128.77640377 140.28208701 127.54709571 139.57382776 126.3125 138.875 C124.6728125 137.946875 124.6728125 137.946875 123 137 C123 136.34 123 135.68 123 135 C122.4225 134.855625 121.845 134.71125 121.25 134.5625 C119.16666667 134.04166667 117.08333333 133.52083333 115 133 C115 132.34 115 131.68 115 131 C113.68 131 112.36 131 111 131 C111 130.34 111 129.68 111 129 C109.68 129 108.36 129 107 129 C107 128.34 107 127.68 107 127 C105.35 127 103.7 127 102 127 C102 126.34 102 125.68 102 125 C100.02 125 98.04 125 96 125 C96 124.67 96 124.34 96 124 C94.35 123.67 92.7 123.34 91 123 C91 122.34 91 121.68 91 121 C89.02 120.67 87.04 120.34 85 120 C85 119.34 85 118.68 85 118 C84.030625 118.020625 83.06125 118.04125 82.0625 118.0625 C79 118 79 118 78 117 C75.67182036 116.63239269 73.3381615 116.29758419 71 116 C71 115.34 71 114.68 71 114 C70.36191406 114.01160156 69.72382812 114.02320313 69.06640625 114.03515625 C68.24011719 114.04417969 67.41382813 114.05320312 66.5625 114.0625 C65.73878906 114.07410156 64.91507813 114.08570313 64.06640625 114.09765625 C62 114 62 114 61 113 C59.15108054 112.76636119 57.29511969 112.58696365 55.4375 112.4375 C53.91962891 112.31181641 53.91962891 112.31181641 52.37109375 112.18359375 C51.58863281 112.12300781 50.80617188 112.06242188 50 112 C50 111.34 50 110.68 50 110 C43.07 110 36.14 110 29 110 C29 109.34 29 108.68 29 108 C20.42 108 11.84 108 3 108 C3 108.66 3 109.32 3 110 C-3.27 110 -9.54 110 -16 110 C-16 110.66 -16 111.32 -16 112 C-19.63 112 -23.26 112 -27 112 C-27 112.66 -27 113.32 -27 114 C-29.97 114 -32.94 114 -36 114 C-36 114.66 -36 115.32 -36 116 C-37.010625 116.103125 -38.02125 116.20625 -39.0625 116.3125 C-43.12206573 117.02131306 -46.26104912 118.30047687 -50 120 C-51.99263591 120.68836513 -53.99041337 121.36281399 -56 122 C-56 122.33 -56 122.66 -56 123 C-58.475 123.495 -58.475 123.495 -61 124 C-61 124.33 -61 124.66 -61 125 C-62.98 125 -64.96 125 -67 125 C-67 125.66 -67 126.32 -67 127 C-68.65 127 -70.3 127 -72 127 C-72 127.66 -72 128.32 -72 129 C-73.32 129 -74.64 129 -76 129 C-76 129.66 -76 130.32 -76 131 C-79.37097383 132.49821059 -81.20442119 133 -85 133 C-85 133.66 -85 134.32 -85 135 C-88.3 136.65 -91.6 138.3 -95 140 C-95 140.66 -95 141.32 -95 142 C-96.32 142 -97.64 142 -99 142 C-99 142.66 -99 143.32 -99 144 C-99.99 144 -100.98 144 -102 144 C-102 144.66 -102 145.32 -102 146 C-105 148 -105 148 -108 148 C-108 148.66 -108 149.32 -108 150 C-108.99 150 -109.98 150 -111 150 C-111 150.66 -111 151.32 -111 152 C-111.99 152 -112.98 152 -114 152 C-114 152.66 -114 153.32 -114 154 C-119.47619048 159 -119.47619048 159 -122 159 C-122 159.66 -122 160.32 -122 161 C-122.99 161 -123.98 161 -125 161 C-125 161.66 -125 162.32 -125 163 C-125.66 163 -126.32 163 -127 163 C-127 163.66 -127 164.32 -127 165 C-127.66 165 -128.32 165 -129 165 C-129 165.66 -129 166.32 -129 167 C-129.66 167 -130.32 167 -131 167 C-131 167.66 -131 168.32 -131 169 C-131.66 169 -132.32 169 -133 169 C-133 169.66 -133 170.32 -133 171 C-134.71484375 172.65625 -134.71484375 172.65625 -136.9375 174.5 C-139.92045179 176.88926999 -139.92045179 176.88926999 -142 180 C-143.32 180 -144.64 180 -146 180 C-146 180.66 -146 181.32 -146 182 C-146.99 182 -147.98 182 -149 182 C-149 182.66 -149 183.32 -149 184 C-150.32 184 -151.64 184 -153 184 C-153 184.66 -153 185.32 -153 186 C-154.98 186 -156.96 186 -159 186 C-159 186.66 -159 187.32 -159 188 C-159.63808594 188.06058594 -160.27617187 188.12117187 -160.93359375 188.18359375 C-161.75988281 188.26738281 -162.58617187 188.35117187 -163.4375 188.4375 C-164.26121094 188.51871094 -165.08492188 188.59992188 -165.93359375 188.68359375 C-167.98662025 188.78930815 -167.98662025 188.78930815 -169 190 C-170.49738124 190.0979057 -171.99942892 190.12974864 -173.5 190.125 C-174.3146875 190.12757813 -175.129375 190.13015625 -175.96875 190.1328125 C-178 190 -178 190 -179 189 C-180.55836106 188.8151097 -182.12240167 188.67713351 -183.6875 188.5625 C-187.72080314 188.20372698 -191.20868637 187.49657117 -195 186 C-195 185.34 -195 184.68 -195 184 C-196.32 184 -197.64 184 -199 184 C-199 183.34 -199 182.68 -199 182 C-199.598125 181.855625 -200.19625 181.71125 -200.8125 181.5625 C-205.5403394 180.34676987 -207.72328395 178.63095562 -211 175 C-211 174.34 -211 173.68 -211 173 C-211.66 173 -212.32 173 -213 173 C-213 172.34 -213 171.68 -213 171 C-213.66 171 -214.32 171 -215 171 C-215 170.34 -215 169.68 -215 169 C-215.66 169 -216.32 169 -217 169 C-217.12375 168.360625 -217.2475 167.72125 -217.375 167.0625 C-217.58125 166.381875 -217.7875 165.70125 -218 165 C-218.66 164.67 -219.32 164.34 -220 164 C-220.66 163.34 -221.32 162.68 -222 162 C-222 160.68 -222 159.36 -222 158 C-222.66 158 -223.32 158 -224 158 C-224 156.68 -224 155.36 -224 154 C-224.66 154 -225.32 154 -226 154 C-226 152.02 -226 150.04 -226 148 C-226.66 148 -227.32 148 -228 148 C-228 138.1 -228 128.2 -228 118 C-227.34 118 -226.68 118 -226 118 C-226 116.02 -226 114.04 -226 112 C-225.34 112 -224.68 112 -224 112 C-224 110.68 -224 109.36 -224 108 C-222.12331609 105.81053544 -220.58231311 104.29115655 -218 103 C-218 102.34 -218 101.68 -218 101 C-217.34 101 -216.68 101 -216 101 C-215.67 99.68 -215.34 98.36 -215 97 C-214.34 97 -213.68 97 -213 97 C-213 96.34 -213 95.68 -213 95 C-211.57421875 93.4921875 -211.57421875 93.4921875 -209.6875 91.875 C-209.07261719 91.33617187 -208.45773438 90.79734375 -207.82421875 90.2421875 C-206 89 -206 89 -203 89 C-202.34 87.35 -201.68 85.7 -201 84 C-200.34 84 -199.68 84 -199 84 C-199 83.34 -199 82.68 -199 82 C-198.01 82 -197.02 82 -196 82 C-196 81.34 -196 80.68 -196 80 C-195.34 80 -194.68 80 -194 80 C-194 79.34 -194 78.68 -194 78 C-193.34 78 -192.68 78 -192 78 C-192 77.34 -192 76.68 -192 76 C-191.01 76 -190.02 76 -189 76 C-189 75.34 -189 74.68 -189 74 C-186.525 73.01 -186.525 73.01 -184 72 C-184 71.34 -184 70.68 -184 70 C-182.35546875 68.52734375 -182.35546875 68.52734375 -180.1875 66.9375 C-179.47980469 66.41027344 -178.77210938 65.88304687 -178.04296875 65.33984375 C-176 64 -176 64 -173 63 C-173 62.34 -173 61.68 -173 61 C-172.01 61 -171.02 61 -170 61 C-170 60.34 -170 59.68 -170 59 C-169.01 59 -168.02 59 -167 59 C-167 58.34 -167 57.68 -167 57 C-166.01 57 -165.02 57 -164 57 C-164 56.34 -164 55.68 -164 55 C-157.375 51 -157.375 51 -154 51 C-154 50.34 -154 49.68 -154 49 C-149.61538462 46 -149.61538462 46 -147 46 C-147 45.34 -147 44.68 -147 44 C-145.68 44 -144.36 44 -143 44 C-143 43.34 -143 42.68 -143 42 C-141.68 42 -140.36 42 -139 42 C-139 41.34 -139 40.68 -139 40 C-137.68 40 -136.36 40 -135 40 C-135 39.34 -135 38.68 -135 38 C-131.91190305 36.23537317 -130.76687864 36 -127 36 C-127 35.34 -127 34.68 -127 34 C-125.68 34 -124.36 34 -123 34 C-123 33.34 -123 32.68 -123 32 C-122.36191406 31.80664062 -121.72382813 31.61328125 -121.06640625 31.4140625 C-120.24011719 31.15367187 -119.41382813 30.89328125 -118.5625 30.625 C-117.73878906 30.36976563 -116.91507812 30.11453125 -116.06640625 29.8515625 C-113.82201984 29.19117773 -113.82201984 29.19117773 -113 27 C-111.68 27 -110.36 27 -109 27 C-109 26.34 -109 25.68 -109 25 C-107.35 24.67 -105.7 24.34 -104 24 C-104 23.67 -104 23.34 -104 23 C-102.02 23 -100.04 23 -98 23 C-98 22.34 -98 21.68 -98 21 C-96.02 21 -94.04 21 -92 21 C-92 20.34 -92 19.68 -92 19 C-87.82262526 17.40861915 -84.46839215 16.78721942 -80 17 C-80 16.34 -80 15.68 -80 15 C-79.07058594 14.80664062 -78.14117187 14.61328125 -77.18359375 14.4140625 C-69.41628104 12.82012105 -69.41628104 12.82012105 -61.75 10.8125 C-59 10 -59 10 -57 10 C-57 9.34 -57 8.68 -57 8 C-52.545 7.505 -52.545 7.505 -48 7 C-48 6.67 -48 6.34 -48 6 C-44.37 6 -40.74 6 -37 6 C-37 5.34 -37 4.68 -37 4 C-32.38 4 -27.76 4 -23 4 C-23 3.34 -23 2.68 -23 2 C-15.41 2 -7.82 2 0 2 C0 1.34 0 0.68 0 0 Z " fill="#8CA4B5" transform="translate(451,457)"/>
<path d="M0 0 C1.25554687 -0.00128906 2.51109375 -0.00257813 3.8046875 -0.00390625 C4.46178711 -0.00181152 5.11888672 0.0002832 5.79589844 0.00244141 C7.80411335 0.00779016 9.81210459 0.00249559 11.8203125 -0.00390625 C13.70363281 -0.00197266 13.70363281 -0.00197266 15.625 0 C16.78644531 0.00112793 17.94789063 0.00225586 19.14453125 0.00341797 C21.8125 0.1328125 21.8125 0.1328125 22.8125 1.1328125 C24.47454487 1.34056811 26.14279491 1.49999505 27.8125 1.6328125 C32.70138889 2.02170139 32.70138889 2.02170139 33.8125 3.1328125 C36.14067964 3.50041981 38.4743385 3.83522831 40.8125 4.1328125 C40.8125 4.7928125 40.8125 5.4528125 40.8125 6.1328125 C42.7925 6.1328125 44.7725 6.1328125 46.8125 6.1328125 C46.8125 6.7928125 46.8125 7.4528125 46.8125 8.1328125 C48.1325 8.1328125 49.4525 8.1328125 50.8125 8.1328125 C50.8125 8.7928125 50.8125 9.4528125 50.8125 10.1328125 C52.4625 10.1328125 54.1125 10.1328125 55.8125 10.1328125 C55.8125 10.7928125 55.8125 11.4528125 55.8125 12.1328125 C57.1325 12.1328125 58.4525 12.1328125 59.8125 12.1328125 C59.8125 12.7928125 59.8125 13.4528125 59.8125 14.1328125 C61.1325 14.1328125 62.4525 14.1328125 63.8125 14.1328125 C63.8125 15.1228125 63.8125 16.1128125 63.8125 17.1328125 C64.38484375 17.24753906 64.9571875 17.36226562 65.546875 17.48046875 C68.02721656 18.19463606 69.87618697 19.20589122 72.0625 20.5703125 C72.76890625 21.00214844 73.4753125 21.43398438 74.203125 21.87890625 C74.73421875 22.29269531 75.2653125 22.70648437 75.8125 23.1328125 C75.8125 23.7928125 75.8125 24.4528125 75.8125 25.1328125 C76.8025 25.1328125 77.7925 25.1328125 78.8125 25.1328125 C78.8125 25.7928125 78.8125 26.4528125 78.8125 27.1328125 C79.4725 27.1328125 80.1325 27.1328125 80.8125 27.1328125 C80.8125 27.7928125 80.8125 28.4528125 80.8125 29.1328125 C81.4725 29.1328125 82.1325 29.1328125 82.8125 29.1328125 C82.8125 29.7928125 82.8125 30.4528125 82.8125 31.1328125 C83.43125 31.2771875 84.05 31.4215625 84.6875 31.5703125 C86.8125 32.1328125 86.8125 32.1328125 88.8125 33.1328125 C88.8125 34.1228125 88.8125 35.1128125 88.8125 36.1328125 C89.4725 36.1328125 90.1325 36.1328125 90.8125 36.1328125 C91.1425 37.4528125 91.4725 38.7728125 91.8125 40.1328125 C92.4725 40.1328125 93.1325 40.1328125 93.8125 40.1328125 C93.8125 40.7928125 93.8125 41.4528125 93.8125 42.1328125 C94.4725 42.1328125 95.1325 42.1328125 95.8125 42.1328125 C95.8125 42.7928125 95.8125 43.4528125 95.8125 44.1328125 C96.4725 44.1328125 97.1325 44.1328125 97.8125 44.1328125 C97.8125 44.7928125 97.8125 45.4528125 97.8125 46.1328125 C98.4725 46.1328125 99.1325 46.1328125 99.8125 46.1328125 C99.8125 47.4528125 99.8125 48.7728125 99.8125 50.1328125 C100.4725 50.1328125 101.1325 50.1328125 101.8125 50.1328125 C101.8125 50.7928125 101.8125 51.4528125 101.8125 52.1328125 C102.4725 52.1328125 103.1325 52.1328125 103.8125 52.1328125 C106.72516376 58.71796534 106.72516376 58.71796534 107.3125 61.5078125 C107.4775 62.0440625 107.6425 62.5803125 107.8125 63.1328125 C108.8025 63.4628125 109.7925 63.7928125 110.8125 64.1328125 C113.09591107 67.37765981 112.98865457 70.25741205 112.8125 74.1328125 C113.4725 74.1328125 114.1325 74.1328125 114.8125 74.1328125 C114.8125 76.1128125 114.8125 78.0928125 114.8125 80.1328125 C115.4725 80.1328125 116.1325 80.1328125 116.8125 80.1328125 C116.8125 82.7728125 116.8125 85.4128125 116.8125 88.1328125 C117.4725 88.1328125 118.1325 88.1328125 118.8125 88.1328125 C118.8125 93.0828125 118.8125 98.0328125 118.8125 103.1328125 C119.4725 103.1328125 120.1325 103.1328125 120.8125 103.1328125 C120.8125 110.7228125 120.8125 118.3128125 120.8125 126.1328125 C120.1525 126.1328125 119.4925 126.1328125 118.8125 126.1328125 C118.8125 130.4228125 118.8125 134.7128125 118.8125 139.1328125 C118.1525 139.1328125 117.4925 139.1328125 116.8125 139.1328125 C116.8125 141.4428125 116.8125 143.7528125 116.8125 146.1328125 C116.1525 146.1328125 115.4925 146.1328125 114.8125 146.1328125 C114.8125 148.1128125 114.8125 150.0928125 114.8125 152.1328125 C114.1525 152.1328125 113.4925 152.1328125 112.8125 152.1328125 C112.8125 154.1128125 112.8125 156.0928125 112.8125 158.1328125 C112.1525 158.1328125 111.4925 158.1328125 110.8125 158.1328125 C110.8125 159.4528125 110.8125 160.7728125 110.8125 162.1328125 C110.1525 162.4628125 109.4925 162.7928125 108.8125 163.1328125 C108.16036708 165.15744505 108.16036708 165.15744505 107.8125 167.1328125 C107.1525 167.1328125 106.4925 167.1328125 105.8125 167.1328125 C105.8125 168.4528125 105.8125 169.7728125 105.8125 171.1328125 C105.1525 171.1328125 104.4925 171.1328125 103.8125 171.1328125 C103.8125 171.7928125 103.8125 172.4528125 103.8125 173.1328125 C103.1525 173.1328125 102.4925 173.1328125 101.8125 173.1328125 C101.8125 174.4528125 101.8125 175.7728125 101.8125 177.1328125 C101.1525 177.1328125 100.4925 177.1328125 99.8125 177.1328125 C99.8125 177.7928125 99.8125 178.4528125 99.8125 179.1328125 C99.1525 179.1328125 98.4925 179.1328125 97.8125 179.1328125 C97.8125 180.1228125 97.8125 181.1128125 97.8125 182.1328125 C97.1525 182.1328125 96.4925 182.1328125 95.8125 182.1328125 C95.4825 183.4528125 95.1525 184.7728125 94.8125 186.1328125 C94.1525 186.1328125 93.4925 186.1328125 92.8125 186.1328125 C92.8125 186.7928125 92.8125 187.4528125 92.8125 188.1328125 C92.1525 188.1328125 91.4925 188.1328125 90.8125 188.1328125 C90.8125 188.7928125 90.8125 189.4528125 90.8125 190.1328125 C90.1525 190.1328125 89.4925 190.1328125 88.8125 190.1328125 C88.8125 190.7928125 88.8125 191.4528125 88.8125 192.1328125 C88.1525 192.1328125 87.4925 192.1328125 86.8125 192.1328125 C86.8125 192.7928125 86.8125 193.4528125 86.8125 194.1328125 C86.1525 194.1328125 85.4925 194.1328125 84.8125 194.1328125 C84.8125 194.7928125 84.8125 195.4528125 84.8125 196.1328125 C84.1525 196.1328125 83.4925 196.1328125 82.8125 196.1328125 C82.8125 196.7928125 82.8125 197.4528125 82.8125 198.1328125 C81.421875 199.60546875 81.421875 199.60546875 79.5625 201.1953125 C78.95921875 201.72253906 78.3559375 202.24976563 77.734375 202.79296875 C75.73437065 204.18728073 74.19397874 204.70604308 71.8125 205.1328125 C71.8125 205.7928125 71.8125 206.4528125 71.8125 207.1328125 C71.1525 207.1328125 70.4925 207.1328125 69.8125 207.1328125 C69.8125 207.7928125 69.8125 208.4528125 69.8125 209.1328125 C68.4925 209.1328125 67.1725 209.1328125 65.8125 209.1328125 C65.8125 209.7928125 65.8125 210.4528125 65.8125 211.1328125 C63.16511084 212.593441 61.91801666 213.1328125 58.8125 213.1328125 C58.8125 213.7928125 58.8125 214.4528125 58.8125 215.1328125 C57.4925 215.1328125 56.1725 215.1328125 54.8125 215.1328125 C54.8125 215.7928125 54.8125 216.4528125 54.8125 217.1328125 C53.76449219 217.42285156 53.76449219 217.42285156 52.6953125 217.71875 C51.78523437 217.97914063 50.87515625 218.23953125 49.9375 218.5078125 C49.03257812 218.76304687 48.12765625 219.01828125 47.1953125 219.28125 C44.66680274 219.993244 44.66680274 219.993244 42.8125 222.1328125 C36.47181466 226.12509586 28.1079579 225.2803613 20.91015625 225.265625 C19.35535805 225.26706009 19.35535805 225.26706009 17.76914978 225.26852417 C15.58478738 225.26920234 13.40042294 225.26737344 11.21606445 225.26318359 C7.88943917 225.25783571 4.56294922 225.26313816 1.23632812 225.26953125 C-0.89322946 225.2688703 -3.02278697 225.26758878 -5.15234375 225.265625 C-6.13903549 225.26764923 -7.12572723 225.26967346 -8.14231873 225.27175903 C-13.58381905 225.25346887 -18.80365405 224.93250759 -24.1875 224.1328125 C-24.1875 223.8028125 -24.1875 223.4728125 -24.1875 223.1328125 C-25.3321875 222.7925 -25.3321875 222.7925 -26.5 222.4453125 C-30.66820571 220.96171386 -34.60305465 219.14115715 -38.6015625 217.25390625 C-40.8121891 216.29552281 -42.83728541 215.62381977 -45.1875 215.1328125 C-45.1875 214.4728125 -45.1875 213.8128125 -45.1875 213.1328125 C-45.785625 212.9884375 -46.38375 212.8440625 -47 212.6953125 C-48.74900404 212.2455686 -50.47427023 211.70388909 -52.1875 211.1328125 C-52.1875 210.4728125 -52.1875 209.8128125 -52.1875 209.1328125 C-53.1775 209.1328125 -54.1675 209.1328125 -55.1875 209.1328125 C-55.1875 208.4728125 -55.1875 207.8128125 -55.1875 207.1328125 C-56.1775 207.1328125 -57.1675 207.1328125 -58.1875 207.1328125 C-58.1875 206.4728125 -58.1875 205.8128125 -58.1875 205.1328125 C-59.1775 205.1328125 -60.1675 205.1328125 -61.1875 205.1328125 C-61.1875 204.4728125 -61.1875 203.8128125 -61.1875 203.1328125 C-61.765 202.8646875 -62.3425 202.5965625 -62.9375 202.3203125 C-65.24300043 201.10352061 -67.20806192 199.82947371 -69.1875 198.1328125 C-69.1875 197.4728125 -69.1875 196.8128125 -69.1875 196.1328125 C-69.8475 196.1328125 -70.5075 196.1328125 -71.1875 196.1328125 C-71.1875 195.4728125 -71.1875 194.8128125 -71.1875 194.1328125 C-71.8475 194.1328125 -72.5075 194.1328125 -73.1875 194.1328125 C-73.1875 193.4728125 -73.1875 192.8128125 -73.1875 192.1328125 C-73.8475 192.1328125 -74.5075 192.1328125 -75.1875 192.1328125 C-75.1875 191.4728125 -75.1875 190.8128125 -75.1875 190.1328125 C-75.8475 190.1328125 -76.5075 190.1328125 -77.1875 190.1328125 C-77.1875 189.4728125 -77.1875 188.8128125 -77.1875 188.1328125 C-77.8475 188.1328125 -78.5075 188.1328125 -79.1875 188.1328125 C-79.1875 187.4728125 -79.1875 186.8128125 -79.1875 186.1328125 C-79.8475 186.1328125 -80.5075 186.1328125 -81.1875 186.1328125 C-81.6825 184.1528125 -81.6825 184.1528125 -82.1875 182.1328125 C-82.8475 182.1328125 -83.5075 182.1328125 -84.1875 182.1328125 C-84.1875 181.1428125 -84.1875 180.1528125 -84.1875 179.1328125 C-84.8475 179.1328125 -85.5075 179.1328125 -86.1875 179.1328125 C-86.1875 178.4728125 -86.1875 177.8128125 -86.1875 177.1328125 C-86.8475 177.1328125 -87.5075 177.1328125 -88.1875 177.1328125 C-88.1875 175.8128125 -88.1875 174.4928125 -88.1875 173.1328125 C-88.8475 173.1328125 -89.5075 173.1328125 -90.1875 173.1328125 C-90.1875 172.4728125 -90.1875 171.8128125 -90.1875 171.1328125 C-90.8475 171.1328125 -91.5075 171.1328125 -92.1875 171.1328125 C-92.1875 169.8128125 -92.1875 168.4928125 -92.1875 167.1328125 C-92.8475 167.1328125 -93.5075 167.1328125 -94.1875 167.1328125 C-95.68571059 163.76183867 -96.1875 161.92839131 -96.1875 158.1328125 C-97.1775 158.1328125 -98.1675 158.1328125 -99.1875 158.1328125 C-99.1875 156.1528125 -99.1875 154.1728125 -99.1875 152.1328125 C-99.8475 152.1328125 -100.5075 152.1328125 -101.1875 152.1328125 C-101.5175 150.1528125 -101.8475 148.1728125 -102.1875 146.1328125 C-102.5175 146.1328125 -102.8475 146.1328125 -103.1875 146.1328125 C-103.1875 143.1628125 -103.1875 140.1928125 -103.1875 137.1328125 C-103.8475 137.1328125 -104.5075 137.1328125 -105.1875 137.1328125 C-105.1875 132.1828125 -105.1875 127.2328125 -105.1875 122.1328125 C-105.8475 122.1328125 -106.5075 122.1328125 -107.1875 122.1328125 C-107.1875 115.2028125 -107.1875 108.2728125 -107.1875 101.1328125 C-106.5275 101.1328125 -105.8675 101.1328125 -105.1875 101.1328125 C-105.19910156 100.27816406 -105.21070313 99.42351562 -105.22265625 98.54296875 C-105.23619141 96.88587891 -105.23619141 96.88587891 -105.25 95.1953125 C-105.26160156 94.09316406 -105.27320313 92.99101563 -105.28515625 91.85546875 C-105.1875 89.1328125 -105.1875 89.1328125 -104.1875 88.1328125 C-103.81989269 85.80463286 -103.48508419 83.470974 -103.1875 81.1328125 C-102.8575 81.1328125 -102.5275 81.1328125 -102.1875 81.1328125 C-102.06375 80.0603125 -101.94 78.9878125 -101.8125 77.8828125 C-101.27403814 74.65204136 -100.82494913 72.86189438 -99.1875 70.1328125 C-98.6925 69.2253125 -98.1975 68.3178125 -97.6875 67.3828125 C-97.1925 66.6403125 -96.6975 65.8978125 -96.1875 65.1328125 C-95.5275 65.1328125 -94.8675 65.1328125 -94.1875 65.1328125 C-94.1875 63.8128125 -94.1875 62.4928125 -94.1875 61.1328125 C-93.5275 61.1328125 -92.8675 61.1328125 -92.1875 61.1328125 C-92.1875 59.8128125 -92.1875 58.4928125 -92.1875 57.1328125 C-91.5275 57.1328125 -90.8675 57.1328125 -90.1875 57.1328125 C-89.9709375 55.9571875 -89.9709375 55.9571875 -89.75 54.7578125 C-89.1875 52.1328125 -89.1875 52.1328125 -88.1875 50.1328125 C-87.5275 50.1328125 -86.8675 50.1328125 -86.1875 50.1328125 C-85.919375 49.3284375 -85.65125 48.5240625 -85.375 47.6953125 C-84.983125 46.8496875 -84.59125 46.0040625 -84.1875 45.1328125 C-82.7025 44.6378125 -82.7025 44.6378125 -81.1875 44.1328125 C-80.02083333 42.21614583 -80.02083333 42.21614583 -79.1875 40.1328125 C-78.8575 39.4728125 -78.5275 38.8128125 -78.1875 38.1328125 C-77.5275 38.1328125 -76.8675 38.1328125 -76.1875 38.1328125 C-75.89875 37.3490625 -75.61 36.5653125 -75.3125 35.7578125 C-74.1875 33.1328125 -74.1875 33.1328125 -72.1875 31.1328125 C-71.1975 31.1328125 -70.2075 31.1328125 -69.1875 31.1328125 C-69.1875 30.4728125 -69.1875 29.8128125 -69.1875 29.1328125 C-68.5275 29.1328125 -67.8675 29.1328125 -67.1875 29.1328125 C-67.1875 28.4728125 -67.1875 27.8128125 -67.1875 27.1328125 C-66.5275 27.1328125 -65.8675 27.1328125 -65.1875 27.1328125 C-65.1875 26.4728125 -65.1875 25.8128125 -65.1875 25.1328125 C-63.5375 24.4728125 -61.8875 23.8128125 -60.1875 23.1328125 C-60.1875 22.4728125 -60.1875 21.8128125 -60.1875 21.1328125 C-59.23037109 20.62621094 -59.23037109 20.62621094 -58.25390625 20.109375 C-57.01447266 19.44035156 -57.01447266 19.44035156 -55.75 18.7578125 C-54.92628906 18.31695313 -54.10257812 17.87609375 -53.25390625 17.421875 C-51.05283422 16.29862691 -51.05283422 16.29862691 -50.1875 14.1328125 C-47.1875 12.1328125 -47.1875 12.1328125 -43.1875 12.1328125 C-43.1875 11.4728125 -43.1875 10.8128125 -43.1875 10.1328125 C-41.5375 10.1328125 -39.8875 10.1328125 -38.1875 10.1328125 C-38.1875 9.4728125 -38.1875 8.8128125 -38.1875 8.1328125 C-36.5375 8.1328125 -34.8875 8.1328125 -33.1875 8.1328125 C-33.1875 7.4728125 -33.1875 6.8128125 -33.1875 6.1328125 C-31.2075 6.1328125 -29.2275 6.1328125 -27.1875 6.1328125 C-27.1875 5.4728125 -27.1875 4.8128125 -27.1875 4.1328125 C-24.5475 4.1328125 -21.9075 4.1328125 -19.1875 4.1328125 C-19.1875 3.4728125 -19.1875 2.8128125 -19.1875 2.1328125 C-17.90552734 2.04193359 -17.90552734 2.04193359 -16.59765625 1.94921875 C-15.49292969 1.86542969 -14.38820313 1.78164063 -13.25 1.6953125 C-12.14785156 1.61410156 -11.04570312 1.53289063 -9.91015625 1.44921875 C-6.25434444 1.02436831 -4.0518455 0.00393492 0 0 Z " fill="#8CA4B5" transform="translate(461.1875,636.8671875)"/>
</svg>
